<svg width="240" height="39" viewBox="0 0 240 39" fill="none" xmlns="http://www.w3.org/2000/svg">
<g clip-path="url(#clip0_2467_502)">
<path d="M0 0.431641L18.799 18.9946L37.5981 0.431641H0Z" fill="#1B3E6C"/>
<path d="M0 37.5576L18.799 18.9946L0 0.431641V37.5576Z" fill="#F7941D"/>
<path d="M37.6008 37.5576V18.9946L18.8018 37.5576H37.6008Z" fill="#40C4E0"/>
<path d="M28.1986 28.2764L18.799 37.5579H0L9.39952 28.2764H28.1986Z" fill="#725BA7"/>
<path d="M18.8004 18.9946L9.40088 28.2761H28.1999L18.8004 18.9946Z" fill="#DC4E3A"/>
<path d="M28.196 9.71314L37.5956 18.9946V0.431641L28.196 9.71314Z" fill="#00B388"/>
<path d="M37.5956 18.9954L28.196 9.71387L18.7965 18.9954L28.196 28.2768L37.5956 18.9954Z" fill="#F5DF2E"/>
<path d="M64.6618 0.431641H52.6938V37.5576H64.2926C72.0359 37.5576 83.2599 32.8284 83.2599 19.0804C83.2599 5.33244 71.1399 0.431641 64.6618 0.431641ZM64.0373 30.378H61.2788V7.61126H64.4337C67.1651 7.61126 74.2731 9.45577 74.2731 19.0804C74.2731 28.7051 66.4537 30.378 64.0373 30.378Z" fill="#F0EFF0"/>
<path d="M106.048 13.3443V16.7384L105.021 15.6016C103.979 14.4435 101.671 12.4971 97.8969 12.4971C94.5846 12.4971 91.3482 13.7732 89.2251 15.9073C87.8349 17.3067 85.5 20.4381 85.5 25.666C85.5 29.2638 86.5643 32.0145 88.9536 34.5882C91.3537 37.1405 94.2642 38.4381 97.6091 38.4381C99.45 38.4381 102.855 37.9984 104.978 35.044L106.042 33.5641V37.5855H113.112V13.3443H106.042H106.048ZM99.1947 31.8429C95.6869 31.8429 92.8415 28.9743 92.8415 25.4354C92.8415 21.8965 95.6869 19.0279 99.1947 19.0279C102.703 19.0279 105.548 21.8965 105.548 25.4354C105.548 28.9743 102.703 31.8429 99.1947 31.8429Z" fill="#F0EFF0"/>
<path d="M155.788 13.3443V16.7384L154.761 15.6016C153.719 14.4435 151.411 12.4971 147.637 12.4971C144.325 12.4971 141.088 13.7732 138.971 15.9073C137.581 17.3067 135.246 20.4381 135.246 25.666C135.246 29.2638 136.31 32.0145 138.699 34.5882C141.099 37.1405 144.015 38.4381 147.355 38.4381C149.196 38.4381 152.595 37.9984 154.723 35.044L155.788 33.5641V37.5855H162.858V13.3443H155.788ZM148.935 31.8429C145.427 31.8429 142.582 28.9743 142.582 25.4354C142.582 21.8965 145.427 19.0279 148.935 19.0279C152.443 19.0279 155.288 21.8965 155.288 25.4354C155.288 28.9743 152.443 31.8429 148.935 31.8429Z" fill="#F0EFF0"/>
<path d="M120.698 0.442871V13.349H117.814V19.6171H120.698V37.5796H128.55V19.6171H133.687V13.349H128.55V0.442871H120.698Z" fill="#F0EFF0"/>
<path d="M227.011 0.431641V37.5845H234.868V19.622H240V13.3485H234.868V0.431641H227.011Z" fill="#F0EFF0"/>
<path d="M190.7 24.9786H179.954L185.254 9.17695L190.7 24.9786ZM195.158 37.5576H204.102L190.233 0.431641H180.459L166.319 37.5523H175.159L177.749 31.0536H192.796L195.158 37.5523V37.5576Z" fill="#F0EFF0"/>
<path d="M206.955 37.5844H214.807V27.3056C214.807 26.2708 214.807 23.1233 217.022 21.0804C218.135 20.0563 219.612 19.563 221.545 19.563C222.876 19.563 224.331 19.5952 224.852 19.6059V13.37C224.488 13.3485 223.288 13.2842 223.288 13.2842C221.768 13.2842 220.334 13.2842 219.232 13.8847C217.82 14.5979 216.674 15.7292 215.914 17.1716L214.807 19.2627V13.3485H206.955V37.5844Z" fill="#F0EFF0"/>
</g>
<defs>
<clipPath id="clip0_2467_502">
<rect width="240" height="38" fill="white" transform="translate(0 0.431641)"/>
</clipPath>
</defs>
</svg>
