<svg width="258" height="46" viewBox="0 0 258 46" fill="none" xmlns="http://www.w3.org/2000/svg">
<path d="M16.5045 20.9142H27.7522C26.2985 26.0964 21.5432 29.8967 15.9131 29.8967C9.13742 29.8967 3.61828 24.369 3.61828 17.5828C3.61828 10.7966 9.13742 5.25655 15.9131 5.25655C21.0381 5.25655 25.4484 8.41523 27.2841 12.8941H30.6226C28.6392 6.65081 22.7998 2.12256 15.9131 2.12256C7.41269 2.12256 0.476807 9.05683 0.476807 17.5828C0.476807 26.1087 7.41269 33.043 15.9131 33.043C20.7794 33.043 25.3006 30.6 27.9493 27.0711V32.3767H30.8074V17.8296H16.5045V20.9142Z" fill="#F0EFF0"/>
<path d="M39.1109 3.08496H36.031V32.3644H39.1109V3.08496Z" fill="#F0EFF0"/>
<path d="M130.09 3.08496H127.01V32.3397H130.09V3.08496Z" fill="#F0EFF0"/>
<path d="M55.1636 30.2546C50.4329 30.2546 46.5893 26.1829 46.5893 21.4572C46.5893 16.7315 50.4329 12.6845 55.1636 12.6845C59.8943 12.6845 63.738 16.7192 63.738 21.4572C63.738 26.1952 59.882 30.2546 55.1636 30.2546ZM55.1636 9.76025C48.7205 9.76025 43.4724 15.0041 43.4724 21.4572C43.4724 27.9103 48.7205 33.1542 55.1636 33.1542C61.6067 33.1542 66.8548 27.8979 66.8548 21.4572C66.8548 15.0165 61.6067 9.76025 55.1636 9.76025Z" fill="#F0EFF0"/>
<path d="M82.1176 30.255C77.3746 30.255 73.5433 26.1833 73.5433 21.4576C73.5433 16.7319 77.3869 12.6849 82.1176 12.6849C86.8483 12.6849 90.692 16.7196 90.692 21.4576C90.692 26.1956 86.8483 30.255 82.1176 30.255ZM82.2531 9.53852C78.7914 9.53852 75.6869 11.0562 73.5433 13.4745V3.08545H70.4634V32.3649H73.5433V29.4283C75.6992 31.8343 78.7914 33.352 82.2531 33.352C88.7455 33.352 94.0183 28.0217 94.0183 21.4452C94.0183 14.8688 88.7455 9.52618 82.2531 9.52618" fill="#F0EFF0"/>
<path d="M109.913 30.2432C105.183 30.2432 101.339 26.1715 101.339 21.4334C101.339 16.6954 105.183 12.6607 109.913 12.6607C114.644 12.6607 118.488 16.6954 118.488 21.4334C118.488 26.1715 114.644 30.2432 109.913 30.2432ZM118.512 13.5121C116.332 11.069 113.178 9.53906 109.655 9.53906C103.076 9.53906 97.7539 14.8693 97.7539 21.4581C97.7539 28.0469 103.076 33.3648 109.655 33.3648C113.178 33.3648 116.332 31.8225 118.512 29.3918V32.3778H121.629V10.9333H118.512V13.5244V13.5121Z" fill="#F0EFF0"/>
<path d="M216.599 0.0996094H211.141V5.28181H216.599V0.0996094Z" fill="#F0EFF0"/>
<path d="M141.068 3.08545H136.066V27.6392V32.3402H152.463V27.6392H141.068V3.08545Z" fill="#F0EFF0"/>
<path d="M216.599 9.31641H211.141V32.3032H216.599V9.31641Z" fill="#F0EFF0"/>
<path d="M166.323 28.3541C162.677 28.3541 159.708 25.1708 159.708 21.2471C159.708 17.3235 162.677 14.1524 166.323 14.1524C169.97 14.1524 172.939 17.3358 172.939 21.2471C172.939 25.1585 169.97 28.3541 166.323 28.3541ZM166.323 9.2417C159.708 9.2417 154.324 14.6213 154.324 21.2471C154.324 27.8729 159.696 33.2526 166.323 33.2526C172.951 33.2526 178.31 27.8853 178.31 21.2471C178.31 14.609 172.939 9.2417 166.323 9.2417Z" fill="#F0EFF0"/>
<path d="M239.367 24.4815C238.271 26.8135 236.041 28.4052 233.441 28.4052C229.782 28.4052 226.813 25.2095 226.813 21.2858C226.813 17.0044 229.782 14.1788 233.441 14.1788C235.905 14.1788 238.061 15.6224 239.195 17.7693H244.911C243.408 12.8586 238.837 9.26807 233.429 9.26807C226.801 9.26807 221.417 14.6477 221.417 21.2982C221.417 27.9487 226.801 33.3036 233.429 33.3036C238.96 33.3036 243.605 29.565 244.997 24.4692H239.355L239.367 24.4815Z" fill="#F0EFF0"/>
<path d="M192.994 40.2866C190.555 40.2866 188.214 39.0034 186.797 37.0786L181.943 39.4476C184.235 43.0381 188.054 45.4318 192.994 45.4318C199.388 45.4318 204.624 40.373 205.141 34.2407H199.659C199.191 37.6708 196.382 40.299 192.994 40.299" fill="#F0EFF0"/>
<path d="M193.242 28.4666C189.607 28.4666 186.651 25.2832 186.651 21.3842C186.651 17.4853 189.607 14.3142 193.242 14.3142C196.876 14.3142 199.845 17.4729 199.845 21.3842C199.845 25.2956 196.888 28.4666 193.242 28.4666ZM200.251 11.7108C198.28 10.2795 195.866 9.42817 193.242 9.42817C186.651 9.42817 181.292 14.7831 181.292 21.3842C181.292 27.9854 186.638 33.3403 193.242 33.3403C199.845 33.3403 205.155 28.0101 205.192 21.4336V9.3418H200.251V11.7108Z" fill="#F0EFF0"/>
<path d="M254.308 1.91357C254.468 1.91357 254.604 1.93825 254.727 1.9876C254.85 2.03696 254.961 2.11099 255.047 2.19736C255.133 2.28373 255.207 2.38244 255.257 2.50583C255.306 2.61687 255.331 2.7526 255.331 2.87598C255.331 3.08574 255.294 3.25848 255.207 3.40654C255.121 3.5546 254.973 3.66565 254.788 3.75202C254.887 3.78903 254.961 3.82605 255.023 3.88774C255.084 3.9371 255.133 4.01113 255.17 4.07282C255.207 4.14686 255.244 4.23323 255.257 4.3196C255.269 4.40597 255.281 4.49234 255.294 4.57871C255.294 4.62806 255.294 4.70209 255.294 4.77612C255.294 4.85015 255.294 4.92418 255.306 5.01055C255.306 5.08458 255.33 5.15862 255.343 5.23265C255.367 5.30668 255.392 5.36837 255.429 5.41773H254.665C254.628 5.30668 254.591 5.17096 254.591 5.02289C254.591 4.87483 254.567 4.72677 254.542 4.57871C254.517 4.39363 254.456 4.2579 254.37 4.17153C254.283 4.08516 254.148 4.04815 253.951 4.04815H253.187V5.41773H252.423V1.91357H254.308ZM254.037 3.49291C254.209 3.49291 254.345 3.4559 254.431 3.36953C254.517 3.29549 254.567 3.15977 254.567 2.98703C254.567 2.81429 254.517 2.6909 254.431 2.61687C254.345 2.54284 254.209 2.50583 254.037 2.50583H253.199V3.49291H254.037Z" fill="#F0EFF0"/>
<path d="M253.852 7.35428C251.832 7.35428 250.181 5.70091 250.181 3.67738C250.181 1.65386 251.832 0.000488281 253.852 0.000488281C255.873 0.000488281 257.523 1.65386 257.523 3.67738C257.523 5.70091 255.873 7.35428 253.852 7.35428ZM253.852 0.605076C252.164 0.605076 250.785 1.987 250.785 3.67738C250.785 5.36777 252.164 6.74968 253.852 6.74968C255.54 6.74968 256.92 5.36777 256.92 3.67738C256.92 1.987 255.54 0.605076 253.852 0.605076Z" fill="#F0EFF0"/>
</svg>
