<svg width="262" height="73" viewBox="0 0 262 73" fill="none" xmlns="http://www.w3.org/2000/svg">
<g clip-path="url(#clip0_2467_444)">
<path d="M0 61.8944V59.4009C1.63647 50.3867 6.94259 41.9465 12.695 34.9746C12.8172 34.8266 12.884 34.6411 12.884 34.4497C12.884 34.2583 12.8172 34.0728 12.695 33.9247C6.94259 26.9692 1.59514 18.4471 0 9.40002V6.93115C2.6448 -9.49796 28.4481 8.11227 34.0187 12.8122C34.1593 12.9312 34.338 12.9966 34.5228 12.9966C34.7076 12.9966 34.8864 12.9312 35.027 12.8122C41.1183 7.73497 51.3421 0.959911 59.4831 0.287326C70.9384 -0.655932 70.0953 9.63789 66.9464 16.9133C64.252 23.1306 60.7256 28.7847 56.3672 33.8755C56.2389 34.0252 56.1678 34.2148 56.1663 34.4113C56.1648 34.6077 56.233 34.7985 56.3589 34.95C60.9129 40.4045 75.9469 61.6565 65.5413 67.595C57.3011 72.3031 40.9447 60.8691 34.87 56.0298C34.7745 55.9528 34.6556 55.9101 34.5325 55.9086C34.4095 55.9071 34.2896 55.9469 34.1922 56.0216C28.0348 60.8117 21.4311 65.1753 14.2406 67.6196C8.34763 69.6291 1.23148 69.5225 0 61.8944ZM31.1177 15.5599C28.1671 13.1649 2.00013 -5.2984 4.09943 9.85115C5.05817 16.7738 11.0338 25.5667 15.3894 30.8653C15.5988 31.1168 15.8082 31.1196 16.0175 30.8735C20.6569 25.4983 25.6931 20.5168 31.1259 15.929C31.1531 15.9061 31.1747 15.8775 31.1893 15.8452C31.2039 15.813 31.2111 15.7779 31.2103 15.7425C31.2095 15.7072 31.2008 15.6724 31.1848 15.6408C31.1687 15.6092 31.1458 15.5816 31.1177 15.5599ZM59.9129 4.15058C52.0363 5.49575 44.1515 10.614 38.0107 15.5107C37.9773 15.537 37.9501 15.5704 37.9312 15.6083C37.9123 15.6463 37.9021 15.6879 37.9013 15.7302C37.9005 15.7726 37.9092 15.8145 37.9266 15.8532C37.9441 15.8918 37.97 15.9261 38.0024 15.9536C43.4848 20.5852 48.554 25.6241 53.21 31.0704C53.3202 31.1961 53.4249 31.1961 53.524 31.0704C57.7778 25.9631 61.1857 20.3473 63.7478 14.2229C65.343 10.4007 66.8555 2.96946 59.9129 4.15058ZM48.7634 31.9562C44.8375 27.5516 39.9281 22.581 34.8865 18.5127C34.6606 18.3323 34.4374 18.3323 34.217 18.5127C29.214 22.6631 24.5718 27.1743 20.2905 32.0464C20.0812 32.2816 20.1363 32.3991 20.4558 32.3991H48.565C48.9618 32.3991 49.0279 32.2515 48.7634 31.9562ZM20.1087 36.6233C24.2991 41.4708 29.0845 45.9656 34.2088 50.3949C34.3 50.4773 34.4186 50.5236 34.5419 50.5252C34.6653 50.5267 34.785 50.4832 34.8782 50.4031C39.8868 46.1543 44.5841 41.5884 48.97 36.7053C49.2125 36.4319 49.1491 36.2952 48.7799 36.2952H20.2657C19.9737 36.2952 19.9214 36.4046 20.1087 36.6233ZM65.1033 60.0735C64.1197 52.265 58.4582 43.9643 53.6232 37.8618C53.4855 37.6868 53.3422 37.6841 53.1934 37.8536C48.543 43.2671 43.4931 48.2841 38.0437 52.9047C38.0124 52.9309 37.9873 52.9636 37.97 53.0004C37.9527 53.0372 37.9438 53.0774 37.9438 53.118C37.9438 53.1586 37.9527 53.1988 37.97 53.2356C37.9873 53.2724 38.0124 53.3051 38.0437 53.3313C43.2892 57.6839 49.1243 61.1289 55.549 63.6661C59.2351 65.1179 65.8719 66.1842 65.1033 60.0735ZM31.1342 52.9458C25.6518 48.3525 20.5936 43.3382 15.9597 37.9028C15.9281 37.867 15.889 37.8385 15.8451 37.8192C15.8012 37.7999 15.7537 37.7903 15.7057 37.7911C15.6577 37.7919 15.6105 37.803 15.5673 37.8237C15.5241 37.8444 15.486 37.8742 15.4555 37.911C11.2624 43.0456 7.89031 48.697 5.33918 54.8651C3.85975 58.4577 2.19022 65.1753 8.47161 64.716C16.1498 64.15 25.2909 58.0147 31.1342 53.3149C31.1612 53.2931 31.1829 53.2655 31.1978 53.2341C31.2126 53.2028 31.2203 53.1683 31.2203 53.1332C31.2203 53.0981 31.2126 53.0631 31.1978 53.0308C31.1829 52.9984 31.1612 52.9694 31.1342 52.9458Z" fill="#F0EFF0"/>
<path d="M98.4029 10.5972C101.354 11.1796 104.354 12.4099 104.701 15.5842C105.503 22.8842 93.2291 22.2772 93.1547 16.0763C93.1492 15.7482 93.3117 15.5842 93.6423 15.5842H95.0722C95.4303 15.5842 95.6397 15.7564 95.7003 16.1009C96.4276 20.1036 103.684 19.0045 101.949 15.4448C100.271 11.9834 93.6506 14.3703 93.6258 8.39903C93.601 1.7306 104.42 2.27195 104.775 8.35802C104.792 8.64783 104.657 8.79547 104.37 8.80094L102.709 8.82555C102.433 8.83101 102.276 8.69978 102.238 8.43184C101.968 6.49611 100.67 5.67042 98.3451 5.95476C95.0804 6.35667 95.7334 10.0723 98.4029 10.5972Z" fill="#F0EFF0"/>
<path d="M176.408 16.6262C176.995 12.8613 168.829 14.1491 167.878 9.27694C166.556 2.46907 177.449 1.39458 179.036 8.13683C179.141 8.57975 178.962 8.80394 178.499 8.80941L177.086 8.82581C176.716 8.83128 176.496 8.65357 176.424 8.29267C175.639 4.53604 169.374 5.41368 170.507 8.83402C171.515 11.8688 177.73 10.253 178.763 14.8627C180.573 22.9419 167.457 22.5318 167.349 15.9864C167.349 15.7239 167.482 15.5927 167.746 15.5927L169.399 15.5845C169.675 15.5845 169.829 15.7212 169.862 15.9946C170.25 19.2263 175.937 19.6364 176.408 16.6262Z" fill="#F0EFF0"/>
<path d="M198.566 11.073V20.5056C198.566 20.6423 198.497 20.7106 198.36 20.7106L196.707 20.7024C196.652 20.7024 196.599 20.6817 196.56 20.6448C196.522 20.6079 196.5 20.5578 196.5 20.5056V11.0812C196.5 10.8133 196.365 10.6765 196.095 10.6711L194.797 10.6383C194.505 10.6328 194.368 10.4879 194.384 10.2036L194.45 8.99782C194.461 8.73535 194.602 8.60411 194.872 8.60411L196.07 8.62052C196.34 8.62052 196.481 8.48655 196.492 8.21861C196.591 5.274 197.426 3.32187 201.062 3.94524C201.338 3.98898 201.475 4.15029 201.475 4.42917L201.459 5.53647C201.453 5.84269 201.299 5.97939 200.996 5.94658C199.393 5.75793 198.401 6.87344 198.533 8.40726C198.561 8.68067 198.715 8.81737 198.996 8.81737H200.624C200.9 8.8119 201.04 8.94587 201.046 9.21928L201.062 10.2446C201.062 10.5234 200.922 10.6629 200.641 10.6629L198.979 10.6547C198.704 10.6547 198.566 10.7941 198.566 11.073Z" fill="#F0EFF0"/>
<path d="M111.176 5.22014L110.135 4.18776C109.964 4.018 109.687 4.018 109.516 4.18776L108.359 5.33614C108.188 5.50591 108.188 5.78115 108.359 5.95092L109.399 6.9833C109.57 7.15307 109.847 7.15307 110.019 6.9833L111.176 5.83493C111.347 5.66516 111.347 5.38991 111.176 5.22014Z" fill="#F0EFF0"/>
<path d="M205.385 8.00544V5.95487C205.383 5.79391 205.446 5.63867 205.561 5.52331C205.675 5.40794 205.832 5.3419 205.996 5.33971L207.021 5.3151C207.302 5.30963 207.443 5.44634 207.443 5.72521L207.451 8.00544C207.457 8.28431 207.597 8.42102 207.873 8.41555L209.302 8.39094C209.732 8.38547 209.942 8.59326 209.931 9.01431L209.914 9.98218C209.909 10.3267 209.729 10.4935 209.377 10.4825L207.914 10.4415C207.649 10.4306 207.509 10.5563 207.492 10.8188C207.385 12.9924 206.41 19.1359 210.079 18.6355C210.256 18.6137 210.344 18.693 210.344 18.8734L210.336 20.4975C210.336 20.5795 210.297 20.6287 210.22 20.6451C206.936 21.1536 205.31 19.8823 205.344 16.8311C205.371 13.9603 205.388 11.9726 205.393 10.868C205.399 10.5727 205.253 10.4306 204.955 10.4415L203.765 10.4907C203.709 10.494 203.654 10.4859 203.601 10.4669C203.549 10.4479 203.501 10.4183 203.46 10.38C203.419 10.3417 203.386 10.2954 203.363 10.244C203.34 10.1925 203.328 10.137 203.327 10.0806L203.319 8.80105C203.319 8.52218 203.462 8.38547 203.748 8.39094L204.963 8.42375C205.244 8.42922 205.385 8.28978 205.385 8.00544Z" fill="#F0EFF0"/>
<path d="M254.388 15.9781C254.38 18.0614 256.272 19.2098 258.215 18.5126C258.463 18.4196 258.664 18.2665 258.818 18.0532C259.424 17.1947 260.286 16.9459 261.405 17.3068C261.67 17.3943 261.752 17.5693 261.653 17.8318C260.953 19.5925 259.697 20.5495 257.884 20.7026C254.518 20.9924 252.589 19.4258 252.099 16.0027C251.785 13.7826 252.112 11.9125 253.082 10.3923C254.867 7.59538 258.95 7.40673 260.826 10.1955C261.681 11.4641 261.975 13.151 261.711 15.2563C261.683 15.475 261.559 15.5844 261.339 15.5844H254.785C254.52 15.5844 254.388 15.7156 254.388 15.9781ZM255.041 13.8127L259.124 13.7307C259.18 13.7296 259.236 13.7175 259.288 13.6951C259.339 13.6726 259.386 13.6403 259.425 13.6C259.465 13.5596 259.495 13.512 259.516 13.4598C259.536 13.4076 259.547 13.352 259.545 13.2959V13.2139C259.53 12.4659 259.267 11.7537 258.814 11.2338C258.362 10.7139 257.756 10.429 257.132 10.4416H256.901C256.591 10.4476 256.286 10.5268 256.003 10.6744C255.72 10.822 255.465 11.0352 255.251 11.3018C255.038 11.5684 254.871 11.8832 254.759 12.2282C254.648 12.5732 254.595 12.9416 254.603 13.3123V13.3944C254.604 13.4504 254.616 13.5056 254.639 13.557C254.661 13.6083 254.694 13.6547 254.735 13.6936C254.775 13.7324 254.823 13.7629 254.876 13.7834C254.928 13.8038 254.985 13.8138 255.041 13.8127Z" fill="#F0EFF0"/>
<path d="M122.123 19.6936C111.933 24.9185 112.85 3.71566 121.842 9.12914C122.085 9.27131 122.322 9.26311 122.553 9.10453C123.082 8.74364 123.708 8.66161 124.429 8.85847C124.677 8.92409 124.801 9.08266 124.801 9.3342C124.801 12.9678 125.52 20.3908 124.099 23.2124C122.413 26.5343 116.255 26.4195 115.115 22.1707C115.109 22.1445 115.108 22.1173 115.114 22.091C115.12 22.0648 115.132 22.0401 115.148 22.0189C115.165 21.9977 115.186 21.9804 115.21 21.9683C115.235 21.9563 115.261 21.9498 115.288 21.9493L117.173 21.9328C117.355 21.9328 117.484 22.0176 117.561 22.1871C118.884 25.1809 122.727 23.0812 122.504 19.9069C122.482 19.6444 122.355 19.5733 122.123 19.6936ZM122.561 13.0921C122.569 12.7616 122.511 12.4326 122.391 12.1241C122.271 11.8156 122.091 11.5336 121.862 11.2941C121.632 11.0546 121.357 10.8624 121.052 10.7284C120.748 10.5945 120.419 10.5213 120.086 10.5133L119.673 10.5033C119.34 10.4952 119.009 10.5523 118.698 10.6713C118.387 10.7904 118.103 10.969 117.861 11.1971C117.62 11.4251 117.426 11.6981 117.291 12.0004C117.156 12.3028 117.083 12.6285 117.074 12.9591L117.008 15.6486C117 15.9792 117.058 16.3081 117.178 16.6166C117.298 16.9252 117.478 17.2072 117.707 17.4467C117.937 17.6861 118.212 17.8784 118.517 18.0123C118.821 18.1463 119.15 18.2194 119.483 18.2275L119.896 18.2375C120.229 18.2456 120.56 18.1885 120.871 18.0694C121.182 17.9504 121.466 17.7717 121.708 17.5437C121.949 17.3156 122.143 17.0427 122.278 16.7403C122.413 16.438 122.486 16.1122 122.494 15.7817L122.561 13.0921Z" fill="#F0EFF0"/>
<path d="M154.472 19.9069C154.125 20.2678 153.676 20.5002 153.125 20.6041C145.993 21.9985 146.1 12.2624 154.307 13.14C155.167 13.233 155.445 12.8748 155.142 12.0656L154.977 11.6308C154.767 11.0786 154.379 10.7204 153.811 10.5563C152.362 10.1517 151.354 10.5673 150.786 11.8031C150.638 12.1312 150.381 12.298 150.018 12.3034H149.547C149.317 12.305 149.092 12.2377 148.901 12.1104C148.711 11.983 148.563 11.8015 148.479 11.5896C148.394 11.3778 148.375 11.1454 148.426 10.923C148.476 10.7006 148.593 10.4984 148.761 10.3431C150.899 8.40188 153.125 7.93436 155.439 8.9405C158.15 10.1134 157.167 17.2412 157.539 20.0874C157.566 20.3225 157.464 20.4674 157.233 20.5221C156.346 20.7244 155.638 20.5248 155.109 19.9233C154.899 19.6882 154.687 19.6827 154.472 19.9069ZM151.241 15.7484C150.949 15.8519 150.695 16.0403 150.512 16.2889C150.329 16.5376 150.226 16.8351 150.216 17.1427C150.133 20.1038 154.96 19.1605 155.225 15.9206C155.247 15.6253 155.112 15.4586 154.82 15.4203C153.58 15.2398 152.387 15.3492 151.241 15.7484Z" fill="#F0EFF0"/>
<path d="M191.715 16.5864C191.694 17.7566 191.206 18.8707 190.358 19.6837C189.51 20.4966 188.371 20.9419 187.191 20.9215L186.415 20.908C185.236 20.8876 184.113 20.4032 183.294 19.5613C182.474 18.7194 182.026 17.5891 182.046 16.4189L182.11 12.7776C182.131 11.6075 182.619 10.4933 183.467 9.68036C184.316 8.86738 185.455 8.42214 186.634 8.44257L187.411 8.45602C188.59 8.47644 189.712 8.96087 190.532 9.80274C191.351 10.6446 191.8 11.7749 191.779 12.9451L191.715 16.5864ZM189.594 12.8728C189.589 12.5519 189.519 12.2352 189.39 11.9409C189.261 11.6465 189.075 11.3802 188.843 11.1572C188.61 10.9342 188.335 10.7589 188.034 10.6413C187.733 10.5236 187.412 10.466 187.089 10.4716L186.708 10.4782C186.055 10.4895 185.434 10.7579 184.98 11.2242C184.526 11.6905 184.277 12.3166 184.289 12.9647L184.347 16.2615C184.353 16.5825 184.422 16.8992 184.551 17.1935C184.68 17.4879 184.866 17.7542 185.099 17.9771C185.331 18.2001 185.606 18.3754 185.907 18.4931C186.208 18.6107 186.529 18.6684 186.852 18.6628L187.233 18.6562C187.886 18.6448 188.508 18.3765 188.961 17.9102C189.415 17.4439 189.664 16.8178 189.652 16.1697L189.594 12.8728Z" fill="#F0EFF0"/>
<path d="M237.114 19.8576C230.924 24.4509 226.064 12.5658 236.99 13.1072C237.083 13.1116 237.176 13.0957 237.262 13.0605C237.348 13.0254 237.426 12.9719 237.489 12.9038C237.552 12.8358 237.599 12.7548 237.627 12.6666C237.655 12.5785 237.664 12.4853 237.651 12.3936L237.61 12.0901C237.516 11.3792 237.128 10.9035 236.445 10.6629C234.996 10.1653 233.951 10.4797 233.312 11.6062C233.042 12.0764 232.637 12.3088 232.097 12.3034H231.684C230.935 12.2924 230.717 11.9507 231.031 11.2781C232.882 7.3 239.809 7.09494 239.651 12.3526C239.58 14.9171 239.709 17.4735 240.04 20.0217C240.067 20.2513 239.971 20.399 239.751 20.4646C238.869 20.7271 238.169 20.5466 237.651 19.9233C237.492 19.7319 237.313 19.71 237.114 19.8576ZM232.825 17.7086C233.973 20.3252 237.668 18.3484 237.66 15.9124C237.66 15.7881 237.615 15.6678 237.531 15.5741C237.447 15.4804 237.331 15.4198 237.205 15.4038C235.982 15.2671 234.811 15.3874 233.692 15.7647C233.502 15.8287 233.326 15.9314 233.178 16.0661C233.029 16.2009 232.91 16.3648 232.828 16.5475C232.747 16.7303 232.704 16.9278 232.704 17.1277C232.703 17.3276 232.744 17.5254 232.825 17.7086Z" fill="#F0EFF0"/>
<path d="M131.38 9.38356C133.408 8.08761 135.287 8.26532 137.017 9.91671C137.248 10.1409 137.471 10.13 137.686 9.8839C138.265 9.20585 138.863 8.81214 139.48 8.70278C142.791 8.11768 144.444 9.45191 144.439 12.7055C144.433 15.3521 144.433 17.892 144.439 20.3254C144.439 20.4276 144.398 20.5257 144.325 20.598C144.252 20.6702 144.153 20.7109 144.05 20.7109L142.579 20.7191C142.298 20.7191 142.158 20.5824 142.158 20.309V12.5578C142.158 12.2991 142.105 12.043 142.003 11.805C141.9 11.5671 141.75 11.3522 141.562 11.1735C141.373 10.9948 141.15 10.856 140.906 10.7654C140.662 10.6749 140.401 10.6345 140.141 10.6467L139.505 10.6795C139.003 10.7006 138.529 10.9136 138.181 11.2741C137.833 11.6347 137.638 12.115 137.637 12.6152L137.604 20.3008C137.604 20.4081 137.561 20.5112 137.486 20.5879C137.41 20.6646 137.307 20.7087 137.199 20.7109L135.984 20.7191C135.714 20.7245 135.579 20.5933 135.579 20.3254L135.48 12.6973C135.463 11.2427 134.722 10.562 133.256 10.6549L132.612 10.6959C132.123 10.7251 131.663 10.9373 131.327 11.2893C130.991 11.6413 130.803 12.1066 130.802 12.5906L130.785 20.514C130.785 20.5662 130.763 20.6163 130.725 20.6532C130.686 20.6901 130.633 20.7109 130.578 20.7109L128.934 20.7027C128.879 20.7027 128.826 20.6819 128.788 20.645C128.749 20.6081 128.727 20.558 128.727 20.5058V9.40817C128.727 9.15117 128.848 8.97892 129.091 8.89143C129.873 8.62349 130.493 8.76566 130.95 9.31794C131.072 9.46558 131.215 9.48746 131.38 9.38356Z" fill="#F0EFF0"/>
<path d="M246.941 9.18653C247.674 8.63972 248.517 8.45653 249.47 8.63698C249.818 8.7026 249.997 8.90766 250.008 9.25215L250.049 10.1954C250.065 10.5837 249.881 10.745 249.495 10.6793C244.611 9.83451 246.115 17.6923 246.082 20.3662C246.076 20.6013 245.955 20.7189 245.718 20.7189L244.024 20.7025C243.886 20.7025 243.817 20.6369 243.817 20.5056V9.44901C243.817 9.19747 243.944 9.05803 244.197 9.03069C244.864 8.96507 245.506 9.05256 246.123 9.29316C246.415 9.408 246.688 9.37245 246.941 9.18653Z" fill="#F0EFF0"/>
<path d="M110.435 8.81629L108.98 8.81881C108.811 8.8191 108.674 8.95521 108.675 9.12282L108.694 20.4091C108.695 20.5767 108.832 20.7123 109.001 20.712L110.455 20.7095C110.624 20.7092 110.761 20.5731 110.761 20.4055L110.741 9.11924C110.741 8.95163 110.603 8.81599 110.435 8.81629Z" fill="#F0EFF0"/>
<path d="M217.245 16.0025L219.444 9.25203C219.537 8.96768 219.736 8.82278 220.039 8.81731L220.907 8.80091C221.281 8.79544 221.521 8.97042 221.626 9.32585L223.452 15.74C223.684 16.5384 223.893 16.5329 224.08 15.7236L225.576 9.20282C225.637 8.94581 225.799 8.81458 226.064 8.80911H227.667C227.943 8.80911 228.047 8.94034 227.981 9.20282L225.039 20.3415C224.973 20.5875 224.81 20.7106 224.551 20.7106H223.419C223.166 20.7106 223 20.5903 222.923 20.3497L220.725 13.1153C220.709 13.0699 220.68 13.0305 220.64 13.0027C220.601 12.9748 220.554 12.9598 220.506 12.9598C220.457 12.9598 220.41 12.9748 220.371 13.0027C220.332 13.0305 220.302 13.0699 220.287 13.1153C219.686 15.1877 219.041 17.3121 218.353 19.4884C218.028 20.5219 217.386 20.9293 216.427 20.7106C216.184 20.6559 216.03 20.5082 215.964 20.2676L212.832 9.04697C212.826 9.02078 212.825 8.99356 212.831 8.96729C212.837 8.94102 212.849 8.91637 212.865 8.89514C212.882 8.87392 212.903 8.85665 212.927 8.8446C212.951 8.83255 212.978 8.82603 213.005 8.82551L214.939 8.81731C215.094 8.81731 215.19 8.89386 215.229 9.04697L216.865 15.9861C216.975 16.4509 217.102 16.4563 217.245 16.0025Z" fill="#F0EFF0"/>
<path d="M141.794 37.6895C143.41 37.6895 144.72 36.3895 144.72 34.7859C144.72 33.1823 143.41 31.8823 141.794 31.8823C140.178 31.8823 138.868 33.1823 138.868 34.7859C138.868 36.3895 140.178 37.6895 141.794 37.6895Z" fill="#F0EFF0"/>
<path d="M222.973 37.6895C224.589 37.6895 225.898 36.3895 225.898 34.7859C225.898 33.1823 224.589 31.8823 222.973 31.8823C221.357 31.8823 220.047 33.1823 220.047 34.7859C220.047 36.3895 221.357 37.6895 222.973 37.6895Z" fill="#F0EFF0"/>
<path d="M105.916 64.3384C101.337 65.3226 95.5927 64.0185 93.7414 59.3186C93.2951 58.1812 93.0554 55.9857 93.0223 52.7322C92.9507 45.9517 92.9452 39.2203 93.0058 32.5382C93.0113 32.3086 93.127 32.1937 93.3529 32.1937H97.8904C98.0612 32.1937 98.1466 32.2812 98.1466 32.4562C98.1411 39.9312 98.1438 47.4964 98.1549 55.1518C98.1714 61.6562 106.998 62.5175 107.841 56.4724C108.899 48.8279 108.288 40.3222 108.271 32.5957C108.271 32.4891 108.314 32.3868 108.39 32.3115C108.466 32.2361 108.569 32.1937 108.676 32.1937L112.833 32.1855C112.939 32.1855 113.04 32.2262 113.114 32.2985C113.188 32.3708 113.23 32.4688 113.23 32.5711C113.236 39.9257 113.23 47.387 113.214 54.955C113.205 59.8681 110.85 63.2803 105.916 64.3384Z" fill="#F0EFF0"/>
<path d="M236.61 44.6856C236.544 48.7977 236.552 52.9043 236.635 57.0054C236.673 58.7278 237.315 59.8707 238.561 60.4339C238.853 60.5706 239.153 60.587 239.461 60.4831C240.084 60.2644 240.729 60.207 241.395 60.3109C241.632 60.3492 241.751 60.4859 241.751 60.721V63.3211C241.751 63.5508 241.638 63.6902 241.412 63.7394C237.368 64.587 234.552 63.6328 232.965 60.8768C230.932 57.3417 231.849 49.205 231.833 44.7184C231.833 44.4341 231.69 44.2919 231.403 44.2919H229.254C228.769 44.2919 228.527 44.054 228.527 43.5783V41.1176C228.527 40.6364 228.767 40.3958 229.246 40.3958H231.42C231.695 40.3958 231.833 40.2591 231.833 39.9857V34.4492C231.833 34.3948 231.855 34.3427 231.893 34.3042C231.932 34.2657 231.985 34.2441 232.039 34.2441H236.379C236.433 34.2441 236.486 34.2657 236.525 34.3042C236.563 34.3427 236.585 34.3948 236.585 34.4492V39.9857C236.585 40.2591 236.723 40.3958 236.998 40.3958H240.511C240.781 40.3958 240.919 40.5325 240.924 40.8059L240.933 43.8818C240.933 44.1552 240.792 44.2919 240.511 44.2919H237.015C236.751 44.2919 236.616 44.4231 236.61 44.6856Z" fill="#F0EFF0"/>
<path d="M122.247 42.6351C125.272 39.6167 131.405 38.7309 133.818 43.0945C134.871 44.9919 135.37 47.0315 135.314 49.2133C135.204 54.0909 135.141 58.8592 135.124 63.5181C135.124 63.6821 135.042 63.7641 134.876 63.7641L130.628 63.7723C130.463 63.7723 130.38 63.6903 130.38 63.5263C130.38 58.4409 130.38 53.2598 130.38 47.983C130.38 41.6017 121.867 43.644 121.892 49.9023C121.914 54.5284 121.917 59.0779 121.9 63.5509C121.9 63.6074 121.878 63.6617 121.837 63.7017C121.797 63.7417 121.742 63.7641 121.685 63.7641L117.363 63.7723C117.308 63.7723 117.256 63.7507 117.217 63.7123C117.178 63.6738 117.156 63.6217 117.156 63.5673V41.2161C117.156 40.806 117.363 40.601 117.776 40.601H121.305C121.73 40.601 121.933 40.8115 121.917 41.2326L121.867 42.4711C121.851 42.8484 121.977 42.9031 122.247 42.6351Z" fill="#F0EFF0"/>
<path d="M172.581 54.5122C172.556 57.4814 174.003 61.8696 177.863 60.0241C178.797 59.573 179.292 58.6051 179.565 57.7275C179.714 57.2463 180.039 57.0057 180.54 57.0057H183.838C184.367 57.0057 184.541 57.2517 184.359 57.7439C180.78 67.3897 168.788 65.5688 167.664 55.7917C166.895 49.0987 167.523 39.781 176.714 40.1173C184.061 40.3879 185.276 47.8766 184.888 53.7576C184.871 54.0091 184.739 54.1349 184.491 54.1349H172.97C172.711 54.1349 172.581 54.2607 172.581 54.5122ZM172.813 50.2388H179.821C179.887 50.2388 179.95 50.2129 179.997 50.1668C180.043 50.1206 180.069 50.058 180.069 49.9928V49.8287C180.069 48.2494 179.691 46.7348 179.016 45.618C178.342 44.5013 177.428 43.8739 176.474 43.8739H176.16C175.206 43.8739 174.292 44.5013 173.618 45.618C172.944 46.7348 172.565 48.2494 172.565 49.8287V49.9928C172.565 50.058 172.591 50.1206 172.637 50.1668C172.684 50.2129 172.747 50.2388 172.813 50.2388Z" fill="#F0EFF0"/>
<path d="M193.624 42.4058C195.045 40.399 196.985 39.7428 199.442 40.4372C199.828 40.5466 200.021 40.8009 200.021 41.2L199.996 43.6443C199.995 43.7041 199.981 43.7629 199.954 43.8164C199.927 43.8698 199.889 43.9165 199.841 43.9529C199.793 43.9892 199.737 44.0143 199.678 44.0262C199.619 44.0381 199.559 44.0366 199.5 44.0216C196.971 43.36 195.153 44.0243 194.045 46.0148C193.472 47.0482 193.186 48.6942 193.186 50.9525C193.197 55.1083 193.2 59.1821 193.194 63.1739C193.194 63.2761 193.152 63.3742 193.078 63.4465C193.003 63.5188 192.903 63.5594 192.797 63.5594L188.855 63.5676C188.579 63.5676 188.442 63.4309 188.442 63.1575V41.0114C188.442 40.6013 188.648 40.3962 189.062 40.3962H192.591C193.015 40.3962 193.219 40.6067 193.202 41.0278L193.169 42.2581C193.153 42.8104 193.304 42.8596 193.624 42.4058Z" fill="#F0EFF0"/>
<path d="M206.666 45.7606C204.542 50.8788 219.32 48.5329 217.229 59.2943C215.914 66.0775 200.922 66.6517 200.831 56.8008C200.831 56.7732 200.836 56.7458 200.847 56.7204C200.858 56.695 200.874 56.672 200.894 56.6528C200.914 56.6337 200.938 56.6187 200.964 56.6089C200.99 56.5991 201.018 56.5946 201.046 56.5957L204.691 56.6039C204.747 56.6066 204.8 56.6275 204.842 56.6633C204.884 56.699 204.913 56.7475 204.922 56.8008C205.352 59.3107 206.804 60.5164 209.278 60.418C213.518 60.2539 213.278 55.8493 209.947 54.701C206.848 53.6347 203.294 52.6915 202.211 49.6074C198.442 38.8789 216.724 36.3526 217.295 47.0483C217.311 47.3983 217.146 47.5733 216.799 47.5733H213.476C213.135 47.5733 212.98 47.4038 213.013 47.0647C213.344 43.9397 208.038 42.4715 206.666 45.7606Z" fill="#F0EFF0"/>
<path d="M144.133 40.6011H139.769C139.605 40.6011 139.472 40.7333 139.472 40.8964V63.4689C139.472 63.632 139.605 63.7642 139.769 63.7642H144.133C144.297 63.7642 144.431 63.632 144.431 63.4689V40.8964C144.431 40.7333 144.297 40.6011 144.133 40.6011Z" fill="#F0EFF0"/>
<path d="M157.109 55.7095L161.514 40.7732C161.531 40.7206 161.563 40.6745 161.608 40.642C161.653 40.6095 161.707 40.5922 161.762 40.5928L166.242 40.6174C166.283 40.6178 166.322 40.6278 166.358 40.6465C166.394 40.6652 166.425 40.692 166.448 40.7248C166.472 40.7576 166.487 40.7955 166.493 40.8353C166.499 40.8751 166.495 40.9156 166.482 40.9537L158.489 63.5919C158.472 63.6417 158.44 63.685 158.397 63.7158C158.354 63.7467 158.303 63.7636 158.25 63.7641L155.481 63.7723C155.428 63.7718 155.377 63.7549 155.334 63.724C155.291 63.6932 155.258 63.6499 155.241 63.6001L147.257 40.9455C147.244 40.9068 147.24 40.8655 147.247 40.825C147.253 40.7846 147.269 40.7463 147.293 40.7133C147.317 40.6803 147.349 40.6536 147.386 40.6354C147.423 40.6173 147.464 40.6083 147.505 40.6092L151.803 40.5928C151.859 40.5922 151.913 40.6095 151.957 40.642C152.002 40.6745 152.035 40.7206 152.051 40.7732L156.622 55.7177C156.639 55.7686 156.672 55.8127 156.717 55.8437C156.761 55.8746 156.814 55.8908 156.868 55.8898C156.923 55.8889 156.975 55.871 157.018 55.8386C157.062 55.8062 157.093 55.761 157.109 55.7095Z" fill="#F0EFF0"/>
<path d="M225.295 40.5928H221.014C220.827 40.5928 220.675 40.7433 220.675 40.9291V63.436C220.675 63.6218 220.827 63.7723 221.014 63.7723H225.295C225.482 63.7723 225.634 63.6218 225.634 63.436V40.9291C225.634 40.7433 225.482 40.5928 225.295 40.5928Z" fill="#F0EFF0"/>
<path d="M248.107 73.0001H243.982C243.746 71.8408 243.712 70.6761 243.883 69.5059C243.927 69.2325 244.084 69.1232 244.354 69.1778C248.082 69.9489 249.239 66.3809 249.975 63.6331C250.045 63.3599 250.036 63.0754 249.95 62.8129L242.577 40.8555C242.568 40.8269 242.566 40.7966 242.57 40.767C242.574 40.7374 242.585 40.7094 242.602 40.6853C242.619 40.6612 242.642 40.6418 242.668 40.6286C242.693 40.6154 242.722 40.6088 242.751 40.6094H247.528C247.649 40.6094 247.724 40.6668 247.751 40.7817L251.909 55.9722C252.03 56.4206 252.151 56.4233 252.272 55.9804L256.405 40.9867C256.438 40.8664 256.518 40.8063 256.644 40.8063L261.413 40.8145C261.438 40.8145 261.463 40.8204 261.485 40.8317C261.507 40.8429 261.526 40.8592 261.541 40.8793C261.555 40.8993 261.565 40.9224 261.568 40.9468C261.572 40.9712 261.57 40.9961 261.562 41.0195C257.005 55.1985 253.969 64.4725 252.454 68.8416C251.721 70.9632 250.272 72.3494 248.107 73.0001Z" fill="#F0EFF0"/>
</g>
<defs>
<clipPath id="clip0_2467_444">
<rect width="262" height="73" fill="white"/>
</clipPath>
</defs>
</svg>
