<svg width="258" height="44" viewBox="0 0 258 44" fill="none" xmlns="http://www.w3.org/2000/svg">
<g clip-path="url(#clip0_2467_520)">
<path d="M12.6319 25.7333C8.99944 24.3102 5.86335 23.0862 5.86335 20.2516C5.86335 16.9778 8.83592 15.8124 11.6216 15.8124C16.4338 15.8124 18.9917 18.4771 19.0151 18.5064L19.2603 18.7699L21.4153 15.1447L21.281 14.9983C21.1583 14.8578 18.1741 11.584 11.7384 11.584C6.61671 11.584 1.10374 14.2956 1.10374 20.2516C1.10374 25.8856 6.17871 27.9002 10.6522 29.6748C14.2905 31.1213 17.4324 32.3688 17.4324 35.174C17.4324 38.3248 14.5124 39.7363 11.6158 39.7363C6.14367 39.7363 2.80903 36.1755 2.77399 36.1404L2.55207 35.9002L-0.00585938 39.297L0.140141 39.461C0.181021 39.5078 1.1563 40.6089 3.05431 41.7216C4.80047 42.7465 7.69128 43.9647 11.5515 43.9647C17.7127 43.9647 22.1862 40.2633 22.1862 35.174C22.1862 29.4698 17.1054 27.4786 12.6261 25.7275" fill="#F0EFF0"/>
<path d="M54.9419 27.625C54.9419 34.4185 49.8727 39.7421 43.402 39.7421C36.9313 39.7421 31.8621 34.4185 31.8621 27.625C31.8621 20.8314 36.9313 15.871 43.402 15.871C49.8727 15.871 54.9419 21.0364 54.9419 27.625ZM43.402 11.584C34.2624 11.584 27.1025 18.6294 27.1025 27.625C27.1025 36.6206 34.2624 43.9705 43.402 43.9705C52.5416 43.9705 59.7015 36.7904 59.7015 27.625C59.7015 18.4595 52.5416 11.584 43.402 11.584Z" fill="#F0EFF0"/>
<path d="M79.8616 0.122987C79.8324 0.122987 79.1024 0 77.9519 0C74.7224 0 67.2121 1.12445 67.2121 11.5549V12.7321H63.0833V16.7145H67.2121V43.2679H71.8433V16.7145H79.6046V12.7321H71.8433V11.5549C71.8433 8.81406 72.6901 4.22255 78.3724 4.22255C79.1725 4.22255 79.7565 4.33382 79.7623 4.33968L80.0894 4.4041V0.163982L79.8616 0.128843V0.122987Z" fill="#F0EFF0"/>
<path d="M101.739 39.5021L101.406 39.5782C101.406 39.5782 100.869 39.6954 100.051 39.6954C97.5633 39.6954 93.3876 38.6705 93.3876 31.7832V16.8081H101.12V12.7437H93.3876V3.8125H88.7215V12.7378H84.6101V16.8022H88.6631V32.2107C88.6631 42.4655 95.566 43.9999 99.6832 43.9999C100.804 43.9999 101.488 43.8769 101.511 43.8711L101.739 43.8301V39.5021Z" fill="#F0EFF0"/>
<path d="M111.166 34.0491C111.166 34.0491 114.553 37.4459 119.575 37.4459C121.754 37.4459 123.628 36.4737 123.628 34.6582C123.628 30.0491 108.631 30.6523 108.631 20.708C108.631 14.9452 113.771 11.6128 120.428 11.6128C127.086 11.6128 130.771 15.1326 130.771 15.1326L127.927 20.8368C127.927 20.8368 125.083 18.1662 120.364 18.1662C118.367 18.1662 116.434 19.0154 116.434 20.9539C116.434 25.3229 131.431 24.7724 131.431 34.7226C131.431 39.8763 126.957 44.0052 119.64 44.0052C111.96 44.0052 107.662 39.4547 107.662 39.4547L111.172 34.055L111.166 34.0491Z" fill="#F0EFF0"/>
<path d="M158.052 23.9822C157.929 19.7948 155.33 17.5518 151.943 17.5518C148.013 17.5518 145.291 19.9764 144.567 23.9822H158.052ZM152.124 11.6074C161.013 11.6074 165.796 18.0964 165.796 26.2838C165.796 27.1916 165.615 29.2531 165.615 29.2531H144.322C144.807 34.6528 148.982 37.4405 153.578 37.4405C158.536 37.4405 162.467 34.0437 162.467 34.0437L165.434 39.5664C165.434 39.5664 160.715 43.994 153.035 43.994C142.815 43.994 136.467 36.5972 136.467 27.8007C136.467 18.278 142.938 11.6074 152.13 11.6074" fill="#F0EFF0"/>
<path d="M173.527 12.3396H180.903V17.6749C180.903 18.8287 180.781 19.8594 180.781 19.8594H180.903C182.293 15.4319 185.984 11.9121 190.703 11.9121C191.433 11.9121 192.093 12.0351 192.093 12.0351V19.6134C192.093 19.6134 191.304 19.4904 190.276 19.4904C187.012 19.4904 183.321 21.3704 181.867 25.9795C181.382 27.4963 181.201 29.1947 181.201 31.0161V43.2679H173.521V12.3396H173.527Z" fill="#F0EFF0"/>
<path d="M195.442 12.3408H203.548L209.961 31.5092C210.568 33.3306 210.988 35.3862 211.053 35.3862H211.17C211.234 35.3862 211.654 33.3306 212.262 31.5092L218.674 12.3408H226.78L215.713 43.2749H206.644L195.454 12.3408H195.442Z" fill="#F0EFF0"/>
<path d="M250.255 23.9822C250.132 19.7948 247.533 17.5518 244.146 17.5518C240.216 17.5518 237.494 19.9764 236.77 23.9822H250.255ZM244.327 11.6074C253.215 11.6074 257.993 18.0964 257.993 26.2838C257.993 27.1916 257.812 29.2531 257.812 29.2531H236.519C237.004 34.6528 241.173 37.4405 245.775 37.4405C250.733 37.4405 254.664 34.0437 254.664 34.0437L257.625 39.5664C257.625 39.5664 252.906 43.994 245.226 43.994C235.006 43.994 228.652 36.5972 228.652 27.8007C228.652 18.278 235.123 11.6074 244.315 11.6074" fill="#F0EFF0"/>
</g>
<defs>
<clipPath id="clip0_2467_520">
<rect width="258" height="44" fill="white"/>
</clipPath>
</defs>
</svg>
