<svg width="240" height="51" viewBox="0 0 240 51" fill="none" xmlns="http://www.w3.org/2000/svg">
<path d="M140.825 40.7096C140.726 40.6038 140.635 40.4916 140.551 40.3729C140.448 40.227 140.397 40.2418 140.397 40.4174L140.399 43.8652C140.399 43.8961 140.387 43.9258 140.364 43.9477C140.342 43.9696 140.312 43.9818 140.281 43.9818H132.141C132.105 43.9818 132.071 43.968 132.046 43.9434C132.021 43.9189 132.007 43.8855 132.007 43.8508V0.153924C132.007 0.138289 132.01 0.122807 132.016 0.108363C132.022 0.0939186 132.031 0.0807936 132.042 0.0697384C132.054 0.0586831 132.067 0.0499142 132.082 0.0439311C132.097 0.037948 132.113 0.0348681 132.129 0.0348681C134.937 0.0388767 137.726 0.036872 140.498 0.0288548C140.69 0.0280531 140.88 0.0376744 141.069 0.0577174C141.086 0.0596649 141.102 0.0674813 141.114 0.0797959C141.126 0.0921106 141.134 0.108136 141.135 0.125061C141.142 0.258147 141.146 0.473809 141.146 0.772048C141.151 6.70476 141.151 12.6138 141.146 18.4992C141.146 18.6267 141.188 18.6411 141.272 18.5425C142.312 17.3095 143.571 16.4244 145.046 15.8872C145.675 15.6579 146.468 15.4491 147.427 15.2607C149.233 14.9055 150.982 14.8687 152.676 15.1501C155.09 15.5517 157.165 16.5162 158.901 18.0435C160.358 19.327 161.515 20.9056 162.371 22.7792C163.09 24.3514 163.58 26.0598 163.842 27.9046C163.905 28.3527 163.937 28.8703 163.939 29.4571C163.941 29.8035 163.942 30.1498 163.943 30.4961C163.944 30.9178 163.935 31.2642 163.916 31.5352C163.756 33.8104 163.125 35.935 162.024 37.9088C160.943 39.8466 159.419 41.4063 157.451 42.5881C155.865 43.5405 154.165 44.157 152.352 44.4376C151.513 44.5675 150.694 44.6397 149.895 44.6541C147.168 44.7014 144.669 43.8884 142.396 42.2153C141.856 41.8184 141.427 41.4244 141.109 41.0331C141.03 40.9361 140.935 40.8283 140.825 40.7096ZM142.316 33.986C142.85 34.8759 143.571 35.5498 144.478 36.0076C145.637 36.5928 146.862 36.8922 148.151 36.9059C149.026 36.9147 149.843 36.8309 150.602 36.6545C151.591 36.4253 152.455 35.9991 153.193 35.3762C154.652 34.1448 155.436 32.5237 155.545 30.513C155.586 29.7674 155.56 29.0687 155.469 28.4169C155.37 27.7178 155.167 27.054 154.86 26.4254C153.786 24.2303 151.907 23.0129 149.222 22.7732C147.911 22.6561 146.677 22.7908 145.519 23.1773C143.737 23.7721 142.477 24.9342 141.739 26.6635C141.497 27.2311 141.328 27.903 141.231 28.679C141.017 30.3867 141.266 31.9777 141.979 33.4521C142.036 33.5707 142.092 33.6677 142.145 33.7431C142.257 33.9018 142.314 33.9828 142.316 33.986Z" fill="white"/>
<path d="M227.186 7.54551C226.534 8.15722 225.772 8.53643 224.902 8.68314C223.161 8.97657 221.722 8.50236 220.584 7.2605C219.987 6.6071 219.629 5.8639 219.51 5.03092C219.398 4.24123 219.501 3.46196 219.82 2.69311C220.303 1.52581 221.203 0.715673 222.52 0.262702C223.411 -0.0435539 224.294 -0.0820372 225.168 0.147254C225.966 0.356503 226.669 0.752952 227.279 1.3366C228 2.02849 228.427 2.86909 228.561 3.85841C228.654 4.5575 228.585 5.21692 228.351 5.83665C228.109 6.47481 227.721 7.04443 227.186 7.54551ZM221.595 6.42711C222.229 7.19355 222.997 7.59682 223.897 7.6369C224.611 7.66897 225.265 7.48979 225.857 7.09935C226.455 6.70571 226.887 6.14571 227.151 5.41935C227.379 4.79562 227.419 4.19914 227.271 3.62992C227.105 2.99015 226.779 2.45219 226.294 2.01606C225.88 1.64486 225.412 1.39553 224.889 1.26806C224.351 1.13738 223.799 1.1458 223.232 1.29331C222.363 1.51859 221.713 2.01245 221.28 2.77489C220.546 4.06886 220.651 5.28627 221.595 6.42711Z" fill="white"/>
<path d="M33.4769 1.72889C35.6529 1.90687 37.673 2.33218 39.5372 3.00482C40.331 3.29183 41.0768 3.62735 41.7744 4.01138C42.7238 4.5333 43.6193 5.14019 44.4609 5.83208C44.4852 5.85172 44.5012 5.87943 44.506 5.90998C44.5107 5.94054 44.5039 5.97185 44.4868 5.99803C44.3774 6.16639 44.2462 6.32674 44.0931 6.47906C43.9212 6.65143 43.834 6.73882 43.8315 6.74122C41.9854 8.691 40.1447 10.6452 38.3093 12.6038C38.3027 12.6102 38.2715 12.6475 38.2155 12.7156C38.0691 12.896 37.9037 12.8764 37.7195 12.6567C37.4217 12.3031 36.9614 11.94 36.3386 11.5672C35.6426 11.1503 34.8018 10.8111 33.8163 10.5498C32.203 10.1217 30.5963 10.08 28.9962 10.4247C28.2789 10.5795 27.601 10.8352 26.9626 11.192C26.2246 11.6032 25.6879 12.061 25.3522 12.5653C24.8709 13.286 24.7229 14.1287 24.908 15.0931C25.0733 15.9582 25.5233 16.6444 26.258 17.1519C27.2649 17.8462 28.5092 18.4182 29.9909 18.868C31.586 19.3514 33.1873 19.8148 34.7949 20.2582C35.3979 20.4241 35.9886 20.6206 36.5669 20.8475C37.1995 21.0952 37.7701 21.3409 38.2785 21.5846C39.566 22.202 40.7292 23.0017 41.7683 23.9838C41.9377 24.1441 42.1944 24.4359 42.5383 24.8592C42.8336 25.2224 43.0611 25.5359 43.2207 25.7997C43.7826 26.7289 44.1495 27.7695 44.3214 28.9216C44.402 29.4635 44.4539 29.9193 44.4769 30.2889C44.4777 30.3065 44.4975 30.5466 44.5361 31.0092C44.56 31.2946 44.5542 31.5797 44.5189 31.8643C44.4958 32.0511 44.4761 32.2856 44.4596 32.5678C44.4489 32.753 44.4259 32.9883 44.3905 33.2737C43.9233 37.0121 42.1339 39.9183 39.0226 41.9924C37.137 43.2495 34.9919 44.0921 32.5872 44.5202C29.2422 45.1159 25.9067 45.0533 22.5806 44.3326C19.2241 43.6062 16.2444 42.0854 13.6414 39.77C13.6294 39.7593 13.6196 39.7464 13.6127 39.732C13.6058 39.7176 13.6019 39.702 13.6012 39.6861C13.6005 39.6702 13.603 39.6544 13.6087 39.6395C13.6143 39.6246 13.6229 39.6109 13.634 39.5992L20.3076 32.5858C20.3129 32.5802 20.3195 32.5758 20.3268 32.5729C20.334 32.57 20.3419 32.5686 20.3498 32.569C20.3576 32.5693 20.3653 32.5713 20.3723 32.5749C20.3793 32.5784 20.3854 32.5833 20.3902 32.5894C22.0438 34.645 24.1828 35.8837 26.8071 36.3054C27.318 36.388 27.9885 36.4421 28.8185 36.4677C28.9913 36.4733 29.1419 36.4673 29.2702 36.4497C29.5408 36.412 29.6889 36.392 29.7144 36.3896C30.1085 36.3639 30.5453 36.295 31.025 36.1827C31.841 35.9911 32.5761 35.6816 33.2301 35.2543C33.8784 34.8302 34.3481 34.3564 34.6394 33.8329C34.975 33.23 35.1066 32.5529 35.0343 31.8017C34.9487 30.9134 34.5633 30.179 33.878 29.5986C33.3268 29.1312 32.5839 28.6726 31.6494 28.2229C30.8292 27.8284 29.7572 27.43 28.4335 27.0275C27.5393 26.7557 26.6471 26.4779 25.757 26.1941C24.2638 25.7187 23.4823 25.469 23.4123 25.4449C21.5885 24.8019 19.9559 23.9216 18.5145 22.804C17.835 22.2765 17.1806 21.5726 16.5512 20.6923C15.824 19.6749 15.3732 18.5497 15.1988 17.3167C14.9725 15.7261 14.9544 14.3006 15.1445 13.0403C15.3098 11.9444 15.5768 10.9426 15.9453 10.0351C16.23 9.33519 16.6232 8.63368 17.125 7.93057C18.6314 5.82045 20.6037 4.26672 23.0421 3.26939C26.2942 1.93934 29.7724 1.42584 33.4769 1.72889Z" fill="white"/>
<path d="M225.511 4.65851C225.407 4.72345 225.352 4.74671 225.174 4.7932C224.969 4.85346 224.946 4.88379 225.05 5.04093L226.038 6.5213C226.109 6.62873 226.079 6.68245 225.946 6.68245H224.846C224.827 6.68246 224.808 6.6776 224.791 6.66833C224.775 6.65906 224.761 6.6457 224.751 6.62953L223.689 4.9808C223.606 4.85253 223.565 4.86776 223.566 5.0265L223.571 6.52251C223.571 6.54346 223.567 6.56424 223.559 6.58364C223.552 6.60304 223.54 6.62068 223.526 6.63555C223.512 6.65042 223.495 6.66222 223.476 6.67027C223.457 6.67832 223.437 6.68246 223.417 6.68245L222.337 6.68486C222.306 6.68484 222.276 6.67262 222.254 6.65081C222.232 6.62901 222.219 6.59935 222.218 6.56821C222.209 6.03506 222.21 5.52557 222.22 5.03973C222.22 5.03171 222.222 2.08741 222.222 2.08741L224.375 2.0874C224.821 2.09622 225.222 2.2265 225.579 2.47824C225.867 2.68107 226.017 2.96007 226.03 3.31523C226.039 3.56537 226.031 3.76901 226.007 3.92614C225.973 4.14662 225.894 4.31539 225.735 4.47983C225.729 4.48544 225.626 4.58658 225.511 4.65851ZM223.57 3.09516L223.582 3.84918C223.582 3.87069 223.591 3.8914 223.607 3.90736C223.623 3.92332 223.645 3.93343 223.668 3.93576C223.975 3.96783 224.222 3.94498 224.409 3.86722C224.611 3.78303 224.704 3.65476 224.688 3.48239C224.676 3.35251 224.601 3.24308 224.462 3.15409C224.213 2.99455 223.94 2.94684 223.642 3.01098C223.622 3.01545 223.603 3.02629 223.59 3.04164C223.576 3.057 223.569 3.07592 223.57 3.09516Z" fill="white"/>
<path d="M50.7609 40.384C48.8762 38.4735 47.6282 36.2235 47.0169 33.6339C46.6698 32.1612 46.5312 30.6684 46.6011 29.1555C46.6949 27.1023 47.1881 25.1646 48.0807 23.3423C48.4287 22.6311 48.8503 21.9449 49.3455 21.2835C51.7551 18.0662 55.0598 16.0803 59.2596 15.3259C61.0234 15.0092 62.7206 14.9046 64.3511 15.012C67.0182 15.1892 69.4628 15.8674 71.6848 17.0468C72.6054 17.5358 73.4988 18.1523 74.3651 18.8963C74.9986 19.4407 75.5691 20.0171 76.0767 20.6256C77.8907 22.8007 78.9556 25.2964 79.2715 28.1129C79.3209 28.5474 79.3452 29.1026 79.3443 29.7785C79.3443 30.1489 79.3431 30.5196 79.3406 30.8908C79.3374 31.3109 79.3168 31.6813 79.2789 32.002C79.1185 33.3489 78.8084 34.5671 78.3485 35.6567C76.8784 39.1393 74.4128 41.6924 70.9518 43.3159C69.6306 43.9356 68.2214 44.3842 66.7241 44.6616C63.0122 45.3486 59.4134 45.0404 55.9277 43.7368C53.964 43.0024 52.2418 41.8848 50.7609 40.384ZM58.5118 24.0674C58.0206 24.4242 57.5941 24.823 57.2321 25.264C56.894 25.6761 56.606 26.1719 56.3683 26.7516C55.5802 28.6725 55.5078 30.6439 56.1511 32.6658C56.6982 34.3831 57.7537 35.6326 59.3176 36.4143C59.8721 36.6909 60.4887 36.8901 61.1674 37.012C61.7835 37.1234 62.4355 37.1827 63.1233 37.1899C63.31 37.1923 63.4713 37.1847 63.607 37.1671C63.8949 37.1286 64.0422 37.109 64.0488 37.1082C65.4251 37.0023 66.6254 36.5401 67.6496 35.7216C68.186 35.2927 68.6397 34.7896 69.0107 34.2124C69.3809 33.6367 69.6586 33.0134 69.8437 32.3424C70.2304 30.9393 70.2702 29.5263 69.9634 28.1033C69.6936 26.8478 69.1296 25.7679 68.2716 24.8635C67.7985 24.3649 67.2704 23.96 66.6871 23.6489C66.0898 23.3306 65.4473 23.1078 64.7596 22.9803C63.1809 22.6869 61.6289 22.7775 60.1036 23.2521C59.5557 23.422 59.0251 23.6938 58.5118 24.0674Z" fill="white"/>
<path d="M98.4007 23.3295C97.8989 22.9583 97.3049 22.7555 96.6188 22.721C96.08 22.6945 95.5465 22.7202 95.0183 22.798C94.4581 22.8813 93.955 23.0413 93.5091 23.2778C92.5112 23.8069 91.7971 24.5818 91.3669 25.6024C91.1925 26.0169 91.0506 26.5708 90.9411 27.2643C90.8432 27.8873 90.7922 28.4573 90.7881 28.9744C90.7865 29.1355 90.7791 29.2702 90.7659 29.3785C90.7396 29.5949 90.726 29.7276 90.7252 29.7765C90.7054 34.4481 90.7034 39.1366 90.719 43.8419C90.719 43.8776 90.7045 43.9118 90.6785 43.9371C90.6526 43.9623 90.6175 43.9765 90.5808 43.9765H81.7379C81.6937 43.9765 81.6513 43.9594 81.6201 43.929C81.5888 43.8985 81.5713 43.8573 81.5713 43.8142V15.817C81.5713 15.7682 81.591 15.7214 81.6262 15.6869C81.6614 15.6524 81.7091 15.633 81.7589 15.633H90.1477C90.1741 15.633 90.2002 15.6381 90.2246 15.6481C90.249 15.6581 90.2712 15.6727 90.2899 15.6911C90.3086 15.7096 90.3234 15.7314 90.3335 15.7555C90.3436 15.7796 90.3488 15.8054 90.3488 15.8314V19.3814C90.348 19.4961 90.3772 19.5037 90.4364 19.4043C91.153 18.2001 92.1155 17.2433 93.324 16.5337C95.4572 15.2799 97.8203 14.7868 100.413 15.0546C102.027 15.2213 103.487 15.6639 104.793 16.3822C105.518 16.7815 106.143 17.2641 106.669 17.8301C107.226 18.4306 107.676 19.0872 108.016 19.7999C108.078 19.929 108.145 19.9318 108.219 19.8084C108.727 18.9561 109.312 18.2065 109.973 17.5595C110.569 16.9759 111.231 16.5061 111.959 16.1501C112.734 15.7717 113.585 15.4867 114.512 15.2951C115.863 15.0161 117.29 14.9435 118.793 15.0774C119.97 15.1816 121.046 15.4278 122.022 15.8158C123.472 16.393 124.637 17.2741 125.518 18.4591C126.312 19.5278 126.884 20.7452 127.235 22.1113C127.485 23.0862 127.659 24.0719 127.758 25.0684C127.812 25.6192 127.839 26.4201 127.839 27.4712C127.839 32.9245 127.839 38.3866 127.839 43.8575C127.839 43.8731 127.836 43.8886 127.83 43.903C127.824 43.9175 127.815 43.9306 127.804 43.9417C127.792 43.9527 127.779 43.9615 127.764 43.9675C127.749 43.9735 127.733 43.9765 127.717 43.9765H118.842C118.806 43.9765 118.772 43.9627 118.747 43.9381C118.722 43.9136 118.708 43.8802 118.708 43.8455C118.708 38.3505 118.708 32.8423 118.708 27.3209C118.708 26.4133 118.509 25.5434 118.11 24.7113C117.799 24.0619 117.412 23.5848 116.948 23.2802C116.417 22.9314 115.79 22.745 115.067 22.721C114.249 22.6937 113.507 22.7755 112.842 22.9663C111.579 23.3295 110.647 24.0811 110.047 25.2212C109.75 25.7888 109.551 26.4185 109.453 27.1104C109.359 27.771 109.311 28.3523 109.308 28.8541C109.284 33.8272 109.279 38.8007 109.291 43.7745C109.291 43.8042 109.279 43.8326 109.258 43.8536C109.236 43.8746 109.207 43.8863 109.177 43.8863L100.309 43.8803C100.269 43.8803 100.23 43.8646 100.202 43.8367C100.174 43.8087 100.158 43.7708 100.158 43.7312C100.167 38.5168 100.17 33.4416 100.167 28.5054C100.167 28.2937 100.149 28.0468 100.114 27.7646C100.083 27.5177 100.061 27.2699 100.048 27.0214C100.006 26.1916 99.8478 25.4621 99.573 24.8327C99.2991 24.2066 98.9083 23.7055 98.4007 23.3295Z" fill="white"/>
<path d="M175.389 19.9441C175.389 20.1349 175.436 20.1457 175.53 19.9766C175.929 19.2542 176.398 18.5796 176.939 17.9526C178.456 16.1929 180.398 15.2172 182.765 15.0256C184.136 14.9141 185.499 14.9855 186.854 15.2396C186.873 15.2433 186.891 15.2532 186.903 15.2676C186.915 15.2821 186.922 15.3003 186.922 15.319L186.952 23.1682C186.952 23.1816 186.949 23.1948 186.943 23.2069C186.937 23.2189 186.928 23.2295 186.917 23.2377C186.906 23.246 186.893 23.2517 186.879 23.2544C186.866 23.2572 186.852 23.2569 186.838 23.2536C185.746 22.9882 184.673 22.8098 183.621 22.7184C182.691 22.6375 181.722 22.6924 180.716 22.8832C179.801 23.0564 179.032 23.3274 178.411 23.6961C177.033 24.5147 176.159 25.7521 175.788 27.4085C175.668 27.9424 175.581 28.48 175.526 29.0212C175.489 29.3883 175.452 29.9315 175.414 30.6506C175.373 31.4147 175.356 32.2906 175.361 33.2783C175.378 36.8235 175.375 40.3534 175.353 43.8682C175.353 43.8962 175.342 43.9232 175.321 43.943C175.301 43.9628 175.273 43.974 175.245 43.974L166.361 43.9668C166.344 43.9668 166.327 43.9635 166.311 43.957C166.294 43.9505 166.28 43.941 166.268 43.9291C166.255 43.9171 166.246 43.903 166.239 43.8873C166.232 43.8717 166.229 43.855 166.229 43.8381V15.7495C166.229 15.724 166.239 15.6995 166.258 15.6815C166.276 15.6634 166.301 15.6533 166.326 15.6533L175.153 15.6244C175.306 15.6236 175.383 15.7002 175.384 15.8541L175.389 19.9441Z" fill="white"/>
<path d="M191.878 40.9787C191 40.1489 190.229 39.1869 189.565 38.0925C188.7 36.6687 188.104 35.054 187.775 33.2485C187.704 32.8557 187.647 32.3703 187.606 31.7922C187.572 31.3048 187.538 30.8169 187.505 30.3287C187.488 30.0641 187.485 29.8685 187.498 29.7418C187.51 29.6143 187.516 29.549 187.516 29.5458C187.59 27.4742 188.026 25.4478 188.824 23.4668C189.381 22.083 190.113 20.8251 191.02 19.6931C191.536 19.0469 192.1 18.4653 192.71 17.9481C194.954 16.0465 197.623 15.0612 200.718 14.9922C202.103 14.9617 203.581 15.1333 205.151 15.5069C206.42 15.8092 207.492 16.2577 208.367 16.8526C209.098 17.3489 209.736 17.9405 210.281 18.6276C210.332 18.6909 210.357 18.6821 210.357 18.6011L210.343 15.6921C210.343 15.6757 210.346 15.6594 210.353 15.6443C210.359 15.6291 210.369 15.6153 210.381 15.6037C210.393 15.5921 210.408 15.5829 210.424 15.5766C210.44 15.5703 210.457 15.567 210.474 15.567H219.335C219.372 15.567 219.407 15.5812 219.433 15.6065C219.459 15.6318 219.473 15.666 219.473 15.7017V43.8697C219.473 43.8984 219.462 43.9259 219.441 43.9462C219.42 43.9665 219.392 43.9779 219.362 43.9779H211.18C211.135 43.9779 211.093 43.9608 211.062 43.9304C211.031 43.8999 211.013 43.8586 211.013 43.8156V40.4592C211.013 40.2668 210.96 40.2511 210.853 40.4123C210.468 40.9911 209.993 41.507 209.427 41.96C208.972 42.324 208.391 42.7108 207.684 43.1205C206.102 44.0368 204.404 44.5431 202.591 44.6393C200.869 44.7307 199.145 44.5399 197.419 44.0669C196.583 43.8368 195.816 43.5518 195.117 43.2119C193.913 42.6258 192.834 41.8814 191.878 40.9787ZM197.246 34.2142C198.113 35.3999 199.226 36.1844 200.584 36.5676C201.289 36.7665 202.077 36.8763 202.949 36.8972C203.759 36.9164 204.558 36.8282 205.344 36.6326C206.19 36.4233 206.933 36.093 207.574 35.6417C208.944 34.6772 209.802 33.3171 210.149 31.5613C210.41 30.2425 210.388 28.9613 210.083 27.7179C209.883 26.9009 209.557 26.171 209.105 25.528C208.21 24.2517 206.988 23.4167 205.439 23.023C204.685 22.8322 203.87 22.7344 202.994 22.7296C201.884 22.7232 200.847 22.9136 199.883 23.3008C198.743 23.7594 197.83 24.4906 197.144 25.4943C196.71 26.1277 196.383 26.8588 196.16 27.6878C195.861 28.8022 195.796 29.9443 195.967 31.114C196.13 32.2388 196.557 33.2722 197.246 34.2142Z" fill="white"/>
</svg>
