<svg width="210" height="139" viewBox="0 0 210 139" fill="none" xmlns="http://www.w3.org/2000/svg">
<g clip-path="url(#clip0_2467_442)">
<path fill-rule="evenodd" clip-rule="evenodd" d="M169.692 133.616C171.388 133.616 172.658 133.549 173.506 133.419C174.381 133.257 175.005 132.965 175.373 132.544C175.772 132.117 175.969 131.453 175.969 130.556V119.928C175.969 118.708 175.48 117.86 174.502 117.379C173.551 116.877 172.012 116.625 169.894 116.625H165.169V133.625H169.696L169.692 133.616ZM158.972 112.2H169.934C172.95 112.2 175.332 112.443 177.082 112.918C178.828 113.367 180.116 114.166 180.937 115.306C181.758 116.446 182.171 118.026 182.171 120.041V130.551C182.171 132.517 181.785 134.038 181.018 135.129C180.25 136.192 178.994 136.946 177.244 137.399C175.498 137.826 173.075 138.037 169.979 138.037H158.976V112.2H158.972ZM146.942 123.227C146.412 123.599 145.421 123.783 143.962 123.783H138.641V116.621H143.962C145.34 116.621 146.305 116.805 146.861 117.177C147.444 117.523 147.732 118.174 147.732 119.13V120.961C147.732 122.074 147.467 122.832 146.937 123.231L146.942 123.227ZM144.043 112.2H132.448V138.037H138.641V127.885H141.499L148.252 138.037H155.4L147.938 127.41C149.71 127.167 151.128 126.624 152.187 125.776C153.273 124.901 153.816 123.707 153.816 122.195V117.658C153.816 115.692 153.049 114.301 151.51 113.479C149.975 112.631 147.489 112.205 144.043 112.205V112.2ZM120.701 112.2H126.893V138.037H120.701V112.2ZM109.312 133.1C108.68 133.446 107.607 133.616 106.095 133.616H101.689V126.732H106.93C108.173 126.732 109.034 126.929 109.51 127.329C110.012 127.728 110.264 128.406 110.264 129.357V131.426C110.264 132.194 109.945 132.755 109.312 133.1ZM108.119 122.473C107.643 122.635 106.916 122.711 105.934 122.711H101.684V116.621H105.812C106.871 116.621 107.639 116.688 108.114 116.818C108.617 116.953 108.949 117.177 109.106 117.496C109.263 117.788 109.344 118.241 109.344 118.851V120.126C109.344 120.817 109.25 121.347 109.066 121.719C108.904 122.065 108.59 122.316 108.114 122.473H108.119ZM105.934 112.2H95.4919V138.037H106.216C109.712 138.037 112.292 137.597 113.961 136.722C115.626 135.847 116.46 134.361 116.46 132.265V128.285C116.46 127.356 116.039 126.521 115.191 125.776C114.369 125.009 113.459 124.569 112.449 124.461V124.264C113.216 124.026 113.876 123.586 114.437 122.949C115.02 122.311 115.312 121.634 115.312 120.916V117.734C115.312 116.329 115.034 115.239 114.477 114.471C113.921 113.677 112.969 113.102 111.619 112.757C110.295 112.384 108.401 112.2 105.938 112.2H105.934ZM80.4822 123.783C81.9406 123.783 82.9322 123.599 83.4617 123.227C83.9912 122.828 84.256 122.074 84.256 120.956V119.125C84.256 118.169 83.9643 117.518 83.381 117.173C82.8246 116.8 81.8598 116.616 80.4822 116.616H75.1649V123.779H80.4822V123.783ZM68.9681 112.2H80.563C84.0047 112.2 86.4906 112.627 88.0297 113.475C89.5643 114.296 90.3316 115.692 90.3316 117.653V122.19C90.3316 123.703 89.7887 124.896 88.7028 125.772C87.6438 126.62 86.2258 127.163 84.4534 127.405L91.9201 138.032H84.772L78.0233 127.881H75.1649V138.032H68.9681V112.196V112.2ZM52.9265 117.375L56.1797 127.086H49.5072L52.7649 117.375H52.922H52.9265ZM56.8169 112.2H49.2694L39.7387 138.037H45.8547L48.1162 131.229H57.5303L59.8322 138.037H66.1053L56.8124 112.2H56.8169ZM10.0649 112.2H3.63033L11.613 138.037H17.729L22.8085 119.287L27.7355 138.037H33.847L42.1079 112.2H35.8348L31.2265 131.072L25.8239 112.2H20.0669L15.0637 131.072L10.0605 112.2H10.0649ZM186.371 137.718C189.996 138.198 193.043 138.436 195.502 138.436C197.301 138.436 198.836 138.319 200.106 138.077C201.403 137.866 202.583 137.48 203.637 136.924C205.836 135.833 206.935 133.751 206.935 130.672V128.958C206.935 126.727 206.271 125.071 204.948 123.981C203.624 122.89 201.492 122.347 198.553 122.347H195.457C193.182 122.347 192.042 121.67 192.042 120.319V118.488C192.042 117.693 192.428 117.11 193.196 116.738C193.909 116.392 195.314 116.222 197.405 116.222C198.912 116.222 201.667 116.459 205.666 116.94V112.322C202.412 111.976 199.72 111.801 197.607 111.801C193.528 111.801 190.548 112.331 188.668 113.394C186.788 114.453 185.85 116.114 185.85 118.371V120.283C185.85 124.798 188.682 127.051 194.349 127.051H197.369C198.643 127.051 199.514 127.275 199.989 127.724C200.492 128.177 200.743 128.828 200.743 129.676V131.35C200.743 133.127 199.02 134.016 195.578 134.016C193.936 134.016 190.867 133.67 186.366 132.979V137.718H186.371ZM203.763 6.50364L204.835 0.53486L204.934 0.997104C207.748 14.2316 211.459 31.6847 209.412 31.6668L124.335 79.2061C113.755 84.4164 96.3489 84.21 85.7143 79.2061L0.592505 31.6847C-1.42673 31.6847 2.15853 14.6804 4.95853 1.41896C5.03032 1.08686 5.09763 0.75925 5.16494 0.431641L6.23738 6.40042L5.54186 13.7784L8.06366 8.48276L78.3957 35.0551L79.2034 40.1263L92.8489 43.1107C96.3938 43.8197 99.979 44.264 103.578 44.4391C102.793 43.4024 102.245 42.1772 101.976 40.8668C101.711 39.5563 101.738 38.192 102.052 36.8951C103.089 31.3975 105.929 29.1671 106.082 29.5171C104.951 31.1103 105.808 32.9009 106.746 34.8576C107.58 36.5944 108.473 38.4658 108.11 40.4494C107.926 41.8855 107.428 43.2498 106.66 44.4346C110.187 44.2416 113.692 43.7973 117.165 43.1062L130.81 40.1218L131.623 35.0506L201.955 8.47828L204.476 13.8726L203.763 6.49467V6.50364Z" fill="#F0EFF0"/>
</g>
<defs>
<clipPath id="clip0_2467_442">
<rect width="210" height="138" fill="white" transform="translate(0 0.431641)"/>
</clipPath>
</defs>
</svg>
