<svg width="146" height="381" viewBox="0 0 146 381" fill="none" xmlns="http://www.w3.org/2000/svg">
<path d="M0.292892 372.293C-0.0976257 372.683 -0.0976257 373.317 0.292892 373.707L6.65686 380.071C7.04738 380.462 7.68054 380.462 8.07108 380.071C8.46159 379.681 8.46159 379.047 8.07108 378.657L2.41422 373L8.07108 367.343C8.46159 366.953 8.46159 366.319 8.07108 365.929C7.68054 365.538 7.04738 365.538 6.65686 365.929L0.292892 372.293ZM1 2L121 2V0L1 0V2ZM145 26V176.5H147V26H145ZM145 176.5L145 348H147L147 176.5H145ZM121 372H1V374H121V372ZM145 348C145 361.255 134.255 372 121 372V374C135.359 374 147 362.359 147 348H145ZM121 2C134.255 2 145 12.7452 145 26H147C147 11.6406 135.359 0 121 0V2Z" fill="#F0EFF0"/>
</svg>
