<svg width="2000" height="2000" viewBox="0 0 2000 2000" fill="none" xmlns="http://www.w3.org/2000/svg">
<mask id="mask0_2382_262" style="mask-type:luminance" maskUnits="userSpaceOnUse" x="548" y="761" width="800" height="488">
<path d="M548 761.333H1347.48V1248.5H548V761.333Z" fill="white"/>
</mask>
<g mask="url(#mask0_2382_262)">
<path d="M1321.66 766.375C1295.92 751.667 1252.47 776.901 1197.32 809.156C1128.14 849.427 1042.07 899.563 947.484 899.563C852.901 899.563 766.833 849.427 697.651 808.99C642.5 776.901 599.052 751.5 573.318 766.208C556.271 776.068 548.25 802.469 548.25 849.261C548.25 955.88 589.859 1056.15 665.229 1131.52C740.599 1206.89 840.865 1248.5 947.484 1248.5C1054.1 1248.5 1154.38 1206.89 1229.74 1131.52C1305.11 1056.15 1346.72 955.88 1346.72 849.261C1346.72 802.636 1338.87 776.234 1321.66 766.375ZM947.484 1245.32C729.234 1245.32 551.589 1067.68 551.589 849.427C551.589 804.474 559.276 778.24 574.984 769.214C579.667 766.542 585.016 765.37 591.031 765.37C616.099 765.37 652.359 786.594 695.979 811.995C765.5 852.438 852.062 902.906 947.484 902.906C1042.91 902.906 1129.47 852.438 1198.99 811.995C1253.14 780.412 1295.92 755.511 1319.98 769.214C1335.69 778.24 1343.38 804.474 1343.38 849.427C1343.38 1067.68 1165.74 1245.32 947.484 1245.32Z" fill="#E6E7E8"/>
</g>
<path d="M1297.59 786.927C1273.53 773.057 1233.08 796.787 1181.61 826.703C1117.11 864.302 1037.06 910.927 948.823 910.927C860.589 910.927 780.536 864.136 716.031 826.703C664.729 796.787 624.12 773.057 600.052 786.927C584.177 796.12 576.656 820.688 576.656 864.469C576.656 963.901 615.427 1057.32 685.615 1127.51C755.807 1197.7 849.391 1236.47 948.656 1236.47C1047.92 1236.47 1141.51 1197.7 1211.69 1127.51C1281.89 1057.32 1320.66 963.734 1320.66 864.469C1320.99 820.854 1313.47 796.12 1297.59 786.927ZM948.823 1233.13C745.443 1233.13 580.167 1067.68 580.167 864.469C580.167 822.693 587.188 798.292 601.891 789.938C606.24 787.427 611.25 786.261 616.766 786.261C639.995 786.261 673.75 805.979 714.526 829.708C779.37 867.479 859.917 914.438 948.99 914.438C1038.06 914.438 1118.61 867.479 1183.45 829.708C1233.92 800.297 1273.69 777.068 1296.09 789.938C1310.62 798.292 1317.81 822.693 1317.81 864.469C1317.65 1067.85 1152.2 1233.13 948.823 1233.13Z" fill="#E6E7E8"/>
<path d="M1273.36 807.651C1251.14 794.781 1213.36 816.844 1165.74 844.583C1106.08 879.344 1031.71 922.625 950.161 922.625C868.609 922.625 794.24 879.344 734.583 844.583C686.953 816.844 649.354 794.948 626.958 807.651C612.089 816.172 605.234 839.068 605.234 879.51C605.234 1069.69 759.984 1224.27 949.995 1224.27C1140 1224.27 1295.08 1069.69 1295.08 879.51C1295.08 839.068 1288.23 816.172 1273.36 807.651ZM950.161 1221.09C761.99 1221.09 608.745 1067.85 608.745 879.51C608.745 840.74 615.26 818.177 628.797 810.49C632.807 808.151 637.323 807.151 642.5 807.151C664.057 807.151 695.307 825.365 732.911 847.255C792.906 882.182 867.604 925.802 950.161 925.802C1032.71 925.802 1107.42 882.182 1167.41 847.255C1214.04 820.016 1250.97 798.625 1271.52 810.323C1285.06 818.01 1291.58 840.573 1291.58 879.344C1291.74 1067.85 1138.5 1221.09 950.161 1221.09Z" fill="#E6E7E8"/>
<path d="M1249.13 828.375C1228.57 816.505 1193.81 836.729 1150.03 862.297C1095.05 894.385 1026.7 934.156 951.661 934.156C876.63 934.156 808.115 894.385 753.297 862.297C709.349 836.729 674.755 816.505 654.198 828.375C640.495 836.229 634.146 857.281 634.146 894.719C634.146 1069.85 776.693 1212.4 951.833 1212.4C1126.97 1212.4 1269.52 1069.85 1269.52 894.719C1269.18 857.281 1262.83 836.229 1249.13 828.375ZM951.661 1208.9C778.365 1208.9 637.323 1067.85 637.323 894.552C637.323 858.953 643.338 838.234 655.703 831.047C659.38 828.875 663.557 828.037 668.234 828.037C687.958 828.037 716.87 844.75 751.458 864.969C806.776 897.224 875.625 937.333 951.495 937.333C1027.36 937.333 1096.39 897.224 1151.53 864.969C1194.48 839.906 1228.41 820.182 1247.29 831.047C1259.66 838.234 1265.67 858.953 1265.67 894.552C1265.84 1068.02 1124.96 1208.9 951.661 1208.9Z" fill="#E6E7E8"/>
<path d="M1224.9 848.927C1206.01 838.068 1174.26 856.615 1134.15 880.011C1084.02 909.255 1021.52 945.688 952.833 945.688C884.151 945.688 821.818 909.255 771.682 880.011C731.573 856.615 699.823 838.068 680.938 848.927C668.406 856.115 662.557 875.5 662.557 909.589C662.557 1069.69 792.906 1200.04 953 1200.04C1113.1 1200.04 1243.45 1069.69 1243.45 909.589C1243.45 875.5 1237.6 856.281 1224.9 848.927ZM953 1196.86C794.745 1196.86 665.896 1068.02 665.896 909.755C665.896 877.339 671.412 858.453 682.609 851.938C685.953 850.099 689.797 849.094 693.974 849.094C712.021 849.094 738.26 864.469 770.01 882.854C820.479 912.266 883.479 949.031 953 949.031C1022.52 949.031 1085.35 912.432 1135.99 882.854C1175.27 859.958 1206.18 841.912 1223.39 851.771C1234.59 858.287 1240.1 877.172 1240.1 909.589C1240.1 1068.02 1111.26 1196.86 953 1196.86Z" fill="#E6E7E8"/>
<path d="M1200.83 869.651C1183.62 859.792 1154.87 876.5 1118.44 897.724C1072.99 924.297 1016.51 957.219 954.339 957.219C892.172 957.219 835.687 924.297 790.229 897.724C753.802 876.5 725.057 859.792 707.844 869.651C696.479 876.167 691.13 893.714 691.13 924.797C691.13 1070.02 809.281 1188.01 954.339 1188.01C1099.4 1188.01 1217.54 1069.85 1217.54 924.797C1217.54 893.714 1212.2 876.167 1200.83 869.651ZM954.339 1184.66C811.12 1184.66 694.474 1068.02 694.474 924.797C694.474 895.385 699.49 878.339 709.516 872.49C712.521 870.818 715.865 869.984 719.708 869.984C735.917 869.984 759.818 883.854 788.391 900.568C834.182 927.307 891.167 960.563 954.172 960.563C1017.17 960.563 1074.16 927.307 1119.95 900.568C1155.37 879.844 1183.45 863.635 1198.99 872.49C1209.19 878.339 1214.04 895.385 1214.04 924.797C1214.2 1068.18 1097.56 1184.66 954.339 1184.66Z" fill="#E6E7E8"/>
<path d="M1176.6 890.375C1161.06 881.516 1135.32 896.557 1102.57 915.609C1061.79 939.339 1011.16 968.917 955.677 968.917C900.193 968.917 849.391 939.339 808.781 915.609C776.193 896.557 750.292 881.516 734.75 890.375C724.385 896.224 719.708 912.099 719.708 940.005C719.708 1070.19 825.661 1175.97 955.677 1175.97C1085.69 1175.97 1191.64 1070.02 1191.64 940.005C1191.64 911.932 1186.96 896.224 1176.6 890.375ZM955.677 1172.63C827.328 1172.63 723.052 1068.18 723.052 940.005C723.052 913.771 727.396 898.563 736.422 893.38C739.094 891.875 742.104 891.208 745.609 891.208C760.151 891.208 781.375 903.573 807.109 918.615C848.219 942.51 899.187 972.26 955.677 972.26C1012.16 972.26 1063.3 942.51 1104.24 918.615C1135.99 900.068 1161.06 885.526 1174.93 893.38C1183.95 898.563 1188.3 913.771 1188.3 940.005C1188.3 1068.18 1084.02 1172.63 955.677 1172.63Z" fill="#E6E7E8"/>
<path d="M1152.37 910.927C1138.5 903.073 1115.77 916.276 1086.86 933.156C1050.93 954.042 1006.15 980.115 957.01 980.115C907.88 980.115 863.26 954.042 827.161 932.984C798.25 916.109 775.359 902.74 761.656 910.76C752.463 916.109 748.286 929.979 748.286 954.714C748.286 1069.85 842.036 1163.44 957.01 1163.44C1071.98 1163.44 1165.74 1069.69 1165.74 954.714C1165.91 930.146 1161.56 916.276 1152.37 910.927ZM957.01 1160.43C843.708 1160.43 751.625 1068.18 751.625 955.047C751.625 931.984 755.469 918.448 763.323 913.938C765.667 912.599 768.338 911.932 771.349 911.932C784.047 911.932 802.932 922.958 825.661 936.161C861.922 957.385 907.213 983.625 957.177 983.625C1007.15 983.625 1052.27 957.219 1088.7 936.161C1116.77 919.786 1138.83 906.917 1150.86 913.938C1158.72 918.448 1162.56 931.984 1162.56 955.047C1162.56 1068.18 1070.32 1160.43 957.01 1160.43Z" fill="#E6E7E8"/>
<path d="M1128.14 931.651C1116.1 924.63 1096.22 936.328 1070.98 951.036C1039.73 969.25 1000.96 991.812 958.349 991.812C915.734 991.812 876.963 969.25 845.713 951.036C820.479 936.328 800.594 924.797 788.557 931.651C780.536 936.328 776.693 948.526 776.693 970.089C776.693 1070.19 858.078 1151.74 958.349 1151.74C1058.62 1151.74 1140 1070.35 1140 970.089C1140 948.526 1136.16 936.328 1128.14 931.651ZM958.349 1148.23C860.083 1148.23 780.036 1068.18 780.036 969.917C780.036 949.865 783.38 938.333 790.062 934.49C792.068 933.323 794.24 932.818 796.917 932.818C807.943 932.818 824.323 942.344 843.875 953.875C875.458 972.26 914.729 995.151 958.182 995.151C1001.63 995.151 1040.9 972.26 1072.49 953.875C1096.72 939.672 1115.94 928.641 1126.3 934.49C1133.15 938.333 1136.49 950.031 1136.49 969.917C1136.66 1068.35 1056.61 1148.23 958.349 1148.23Z" fill="#E6E7E8"/>
<path d="M1104.07 952.37C1093.71 946.354 1076.67 956.214 1055.28 968.75C1028.87 984.125 995.948 1003.34 959.854 1003.34C923.755 1003.34 890.833 984.125 864.432 968.75C843.042 956.214 825.995 946.354 815.63 952.37C808.781 956.385 805.438 966.745 805.438 985.125C805.438 1070.19 874.625 1139.54 959.854 1139.54C1045.08 1139.54 1114.27 1070.35 1114.27 985.125C1114.1 966.745 1110.92 956.214 1104.07 952.37ZM959.688 1136.2C876.464 1136.2 808.615 1068.52 808.615 985.125C808.615 968.25 811.453 958.557 817.135 955.214C818.807 954.208 820.646 953.875 822.818 953.875C832.01 953.875 845.88 961.896 862.594 971.589C889.328 987.297 922.755 1006.68 959.688 1006.68C996.62 1006.68 1030.04 987.297 1056.78 971.589C1077.33 959.557 1093.55 950.198 1102.23 955.214C1107.92 958.557 1110.76 968.25 1110.76 985.125C1110.76 1068.35 1043.08 1136.2 959.688 1136.2Z" fill="#E6E7E8"/>
<path d="M1079.84 972.927C1071.15 967.912 1057.11 976.104 1039.4 986.464C1017.67 999.167 990.604 1014.88 961.021 1014.88C931.443 1014.88 904.37 999.167 882.646 986.464C864.932 976.104 850.896 967.912 842.203 972.927C836.354 976.271 833.682 984.958 833.682 1000.17C833.682 1070.35 890.667 1127.34 960.854 1127.34C1031.04 1127.34 1088.03 1070.35 1088.03 1000.17C1088.36 984.958 1085.52 976.271 1079.84 972.927ZM961.188 1124C892.839 1124 837.359 1068.52 837.359 1000.17C837.359 986.464 839.531 978.443 844.208 975.766C845.547 975.099 847.052 974.599 848.719 974.599C856.24 974.599 867.604 981.281 881.307 989.135C903.37 1002.01 930.776 1018.05 961.354 1018.05C991.771 1018.05 1019.34 1002.01 1041.41 989.135C1058.11 979.276 1071.48 971.589 1078.51 975.599C1083.02 978.276 1085.35 986.13 1085.35 1000C1085.02 1068.52 1029.37 1124 961.188 1124Z" fill="#E6E7E8"/>
<path d="M1055.61 993.651C1048.59 989.641 1038.06 995.823 1023.69 1004.18C1006.65 1014.04 985.589 1026.41 962.526 1026.41C939.464 1026.41 918.406 1014.04 901.365 1004.18C886.823 995.656 876.297 989.641 869.443 993.651C864.766 996.323 862.594 1003.18 862.594 1015.21C862.594 1070.35 907.38 1115.14 962.526 1115.14C1017.67 1115.14 1062.46 1070.35 1062.46 1015.21C1062.46 1003.18 1060.29 996.323 1055.61 993.651ZM962.526 1111.97C909.219 1111.97 865.932 1068.68 865.932 1015.38C865.932 1004.68 867.604 998.661 871.115 996.656C872.115 996.156 873.12 995.823 874.458 995.823C880.307 995.823 889.495 1001.17 899.859 1007.19C917.24 1017.21 938.797 1029.91 962.693 1029.91C986.589 1029.91 1008.15 1017.38 1025.53 1007.19C1038.06 999.833 1048.93 993.651 1054.1 996.656C1057.61 998.661 1059.29 1004.84 1059.29 1015.38C1059.12 1068.52 1015.84 1111.97 962.526 1111.97Z" fill="#E6E7E8"/>
</svg>
