<svg width="240" height="122" viewBox="0 0 240 122" fill="none" xmlns="http://www.w3.org/2000/svg">
<g filter="url(#filter0_d_2128_54)">
<path d="M37.6714 46.0113V58.822L39.222 56.4341C42.9046 50.8516 49.2362 43.7847 54.3403 39.6543C56.2462 38.0731 59.412 35.7497 62.2225 33.8136C62.9978 33.2973 62.384 33.265 50.3669 33.265L37.6714 33.2328V46.0113ZM49.2362 39.3961C47.6856 40.816 45.2628 43.2361 43.8415 44.785L41.2248 47.5924V42.1713V36.7824H46.6519H52.0467L49.2362 39.3961Z" fill="#F0EFF0"/>
<path d="M85.3198 33.5877C79.9574 34.2976 72.7859 36.4919 67.6818 39.0734C61.5764 42.1067 54.4695 47.8829 49.8823 53.4654C45.1013 59.3383 41.3864 66.6634 39.4158 74.182C38.5759 77.4412 37.6714 83.6045 37.6714 86.1861V87.7672H38.9635C44.1322 87.7672 52.5312 85.9924 58.1845 83.6691C77.5023 75.7955 91.0054 57.2086 92.1683 36.7823L92.3621 33.2328L89.9716 33.265C88.6472 33.2973 86.5797 33.4586 85.3198 33.5877ZM88.5179 38.4603C88.098 41.9454 87.0643 46.4953 85.9336 49.7222C84.803 53.0459 81.8633 59.0802 80.6358 60.6613L79.9897 61.4681V59.5965C79.9574 52.3037 73.1735 45.5272 65.8728 45.495H63.9992L64.8068 44.8496C65.8728 44.0106 71.203 41.2677 73.8519 40.2029C76.6947 39.0412 81.2172 37.8472 84.7061 37.2986C89.0671 36.621 88.7764 36.5242 88.5179 38.4603ZM69.2324 49.7544C71.8491 50.7225 74.7564 53.659 75.7579 56.305C76.727 58.9188 76.6301 62.9847 75.5317 65.2435C74.3365 67.6314 72.4305 69.5676 70.04 70.7292C68.1018 71.6973 67.6172 71.7941 64.9683 71.7941C62.4809 71.7941 61.8025 71.665 60.2196 70.9229C57.8614 69.8257 55.6324 67.5992 54.5341 65.2435C53.7911 63.6623 53.6619 62.9847 53.6619 60.5C53.6619 58.0476 53.7911 57.3054 54.5018 55.821C55.9232 52.7877 58.2491 50.6257 61.221 49.5286C63.127 48.8186 67.0681 48.9477 69.2324 49.7544ZM50.7545 65.5017C51.0453 66.2761 51.5944 67.5023 52.0144 68.2445C53.0158 69.9225 56.2462 72.9881 57.9583 73.8593C59.735 74.7629 62.6424 75.505 64.4837 75.505H65.9374L65.1298 76.1504C63.7731 77.183 58.9597 79.6032 55.8263 80.8294C52.2082 82.217 47.1042 83.4755 43.9384 83.7659L41.5479 83.9918V82.6042C41.5479 80.8294 42.6462 75.5373 43.6799 72.1813C44.6814 69.0835 46.8134 64.3723 48.5578 61.5326L49.7854 59.5319L50.0115 61.7908C50.1407 63.017 50.4638 64.695 50.7545 65.5017Z" fill="#F0EFF0"/>
<path d="M63.03 51.626C60.2196 52.336 58.0229 54.143 56.86 56.6277C55.8908 58.6929 55.7939 62.1134 56.6984 64.0818C58.249 67.4701 61.221 69.3739 64.936 69.3739C68.7155 69.3417 71.3968 67.7282 73.1412 64.3723C73.7873 63.0815 73.9811 62.3071 73.9811 60.5C73.9811 57.7249 73.1735 55.7887 71.2676 53.9171C69.6847 52.4005 69.3293 52.3037 69.3293 53.3363C69.3293 55.0143 67.0034 56.305 65.4851 55.466C64.193 54.7239 63.6115 53.4654 64.0638 52.2714C64.2576 51.7551 64.3222 51.3034 64.2253 51.3356C64.0961 51.3679 63.5792 51.497 63.03 51.626Z" fill="#F0EFF0"/>
<path d="M133.065 33.8459C132.29 34.2008 131.515 34.8785 131.224 35.4593C129.867 38.0408 131.321 40.2351 134.81 40.9773C137.168 41.4613 137.879 42.0422 136.845 42.5908C136.134 42.978 133.582 42.623 132.322 41.9454C131.838 41.6872 131.676 41.8486 131.224 43.0748C130.901 43.8815 130.739 44.656 130.836 44.8173C131.418 45.7531 137.071 46.1403 138.88 45.3659C140.851 44.5269 141.82 42.6876 141.303 40.7514C140.947 39.3961 140.011 38.783 137.265 38.1054C135.843 37.7504 135.036 37.3632 134.971 37.0405C134.842 36.3629 136.07 36.1047 137.652 36.4919C139.752 37.0082 139.817 37.0082 140.431 35.5884C141.012 34.2008 141.012 34.2008 140.301 33.8136C139.914 33.62 138.428 33.3941 137.006 33.3296C134.939 33.2328 134.164 33.3296 133.065 33.8459Z" fill="#F0EFF0"/>
<path d="M106.156 39.5252V45.495H110.679C115.556 45.495 116.59 45.2368 117.592 43.817C118.367 42.7198 118.205 41.4613 117.172 40.2674C116.235 39.2025 116.235 39.2025 116.849 38.4281C117.527 37.5891 117.656 36.1047 117.107 35.1044C116.461 33.9427 114.878 33.5555 110.356 33.5555H106.156V39.5252ZM113.198 37.1696C113.101 37.815 112.875 37.9118 111.583 38.0086C110.097 38.1054 110.032 38.0731 110.032 37.2987C110.032 36.5242 110.129 36.4597 111.68 36.4597C113.198 36.4597 113.295 36.5242 113.198 37.1696ZM113.812 41.4936C114.103 42.2681 113.457 42.6553 111.68 42.8489L110.032 43.0103V41.9776C110.032 40.9773 110.032 40.9773 111.809 40.9773C113.134 40.9773 113.651 41.1064 113.812 41.4936Z" fill="#F0EFF0"/>
<path d="M119.401 39.5252V45.495H124.569H129.738V44.0429V42.5908H126.669C123.6 42.5908 123.6 42.5908 123.6 41.784C123.6 40.9773 123.632 40.9773 126.184 40.9773H128.769V39.5252V38.0731H126.184C123.632 38.0731 123.6 38.0731 123.6 37.2664C123.6 36.4597 123.632 36.4597 126.508 36.4597H129.415V35.0076V33.5555H124.408H119.401V39.5252Z" fill="#F0EFF0"/>
<path d="M141.69 35.0076V36.4597H143.467H145.244V40.9773V45.495H147.344H149.443V40.9773V36.4597H151.22H152.997V35.0076V33.5555H147.344H141.69V35.0076Z" fill="#F0EFF0"/>
<path d="M109.225 54.7561C104.347 57.3054 104.347 63.985 109.225 66.1793C111.648 67.3087 115.233 66.7924 117.042 65.1145L117.785 64.4045L117.075 63.6301C115.879 62.3716 115.233 62.1457 114.555 62.7588C114.264 63.0492 113.457 63.3397 112.843 63.4687C110.614 63.8237 108.934 61.0808 110.097 58.9511C110.937 57.3377 112.875 56.9504 114.329 58.1121L115.201 58.7575L116.493 57.7249C117.979 56.5309 118.012 56.4341 117.204 55.7242C115.556 54.2398 111.195 53.6913 109.225 54.7561Z" fill="#F0EFF0"/>
<path d="M122.34 54.5303C119.756 55.6274 118.432 57.6603 118.432 60.5323C118.432 63.1138 119.465 64.824 121.727 65.9534C124.699 67.4378 128.349 66.8892 130.449 64.6627C132.936 61.9844 132.387 57.4022 129.35 55.3047C128.22 54.498 127.67 54.3689 125.571 54.3044C124.214 54.2398 122.76 54.3689 122.34 54.5303ZM126.992 58.2412C128.575 59.7901 127.832 62.8879 125.765 63.4042C122.986 64.1141 121.21 59.8869 123.536 58.0798C124.634 57.2086 126.023 57.2731 126.992 58.2412Z" fill="#F0EFF0"/>
<path d="M133.614 60.3064V66.4697H135.391H137.168V64.0496C137.168 62.7265 137.265 61.6294 137.426 61.6294C137.555 61.6294 138.169 62.5007 138.783 63.5655C139.752 65.2435 140.043 65.5017 140.883 65.5017C141.723 65.5017 142.013 65.2435 143.144 63.3074L144.436 61.1454L144.533 63.7914L144.63 66.4697H146.374H148.151V60.3064V54.1753L146.471 54.2721L144.792 54.3689L142.983 57.4022C141.981 59.0479 141.012 60.3709 140.85 60.3064C140.689 60.2418 139.752 58.8865 138.783 57.3054L137.006 54.3689L135.294 54.2721L133.614 54.1753V60.3064Z" fill="#F0EFF0"/>
<path d="M150.348 54.4012C150.186 54.5302 150.089 57.3054 150.089 60.5645V66.4697H152.189H154.289V65.0176V63.5655H156.001C158.004 63.5655 160.168 62.662 160.911 61.5003C162.365 59.306 161.687 56.4664 159.393 55.1756C158.295 54.5625 157.455 54.4012 154.321 54.2721C152.254 54.2076 150.477 54.2398 150.348 54.4012ZM157.003 57.9507C158.165 59.0802 157.39 60.3386 155.517 60.3386H154.289V58.8865C154.289 57.4344 154.289 57.4344 155.387 57.4344C156.001 57.4344 156.744 57.6603 157.003 57.9507Z" fill="#F0EFF0"/>
<path d="M166.403 54.5303C166.306 54.6916 165.046 57.4667 163.657 60.6613L161.137 66.4697H163.205C165.24 66.4697 165.305 66.4375 165.628 65.5017C165.983 64.5336 166.015 64.5336 168.374 64.5336C170.764 64.5336 170.796 64.5336 171.119 65.5017C171.475 66.4375 171.539 66.4697 173.575 66.4697C176.062 66.4697 176.127 67.2119 172.864 59.7901L170.473 54.3689L168.567 54.2721C167.469 54.2076 166.532 54.3366 166.403 54.5303ZM168.987 59.8869C169.601 61.4035 169.633 61.3067 168.374 61.3067H167.275L167.76 60.016C168.051 59.306 168.341 58.7252 168.374 58.7252C168.438 58.7252 168.729 59.2415 168.987 59.8869Z" fill="#F0EFF0"/>
<path d="M176.579 60.3386V66.4697H178.517H180.423L180.52 63.8237L180.617 61.1776L182.813 63.8237L185.042 66.4697H186.787H188.531V60.3386V54.2076H186.593H184.687L184.59 57.015L184.493 59.8546L182.103 57.015L179.745 54.2076H178.162H176.579V60.3386Z" fill="#F0EFF0"/>
<path d="M189.177 54.4012C189.177 54.498 190.211 56.2728 191.439 58.3702C193.635 62.0489 193.7 62.2102 193.7 64.3077V66.4697H195.8H197.899V64.1786C197.899 61.9198 197.932 61.823 200.064 58.2734C201.227 56.305 202.261 54.5948 202.325 54.4334C202.39 54.3044 201.582 54.2076 200.484 54.2076H198.546L197.641 55.6919C195.864 58.7252 195.961 58.7252 194.572 56.3373L193.345 54.2076H191.277C190.114 54.2076 189.177 54.3044 189.177 54.4012Z" fill="#F0EFF0"/>
<path d="M90.2301 65.2435C84.8353 73.1494 77.4054 80.539 69.394 85.9602L66.7128 87.7672H79.5052H92.2653V75.1824C92.2653 68.2445 92.233 62.5975 92.1684 62.5975C92.1037 62.5975 91.2315 63.7914 90.2301 65.2435ZM88.7118 78.8933V84.2176H83.414H78.0838L83.317 78.9255C86.1921 76.0213 88.5826 73.6334 88.6472 73.6012C88.6795 73.5689 88.7118 75.9568 88.7118 78.8933Z" fill="#F0EFF0"/>
<path d="M129.447 75.2146C127.541 75.6018 126.54 76.3118 125.958 77.6993C125.345 79.216 125.7 80.8617 126.863 81.7007C127.315 82.0556 128.704 82.5719 129.932 82.8946C131.385 83.2496 132.161 83.6045 132.161 83.9272C132.161 84.6049 129.447 84.7017 127.929 84.0563C127.283 83.7981 126.701 83.6045 126.669 83.6368C126.669 83.7013 126.346 84.3467 126.023 85.1212C125.312 86.7669 125.441 86.896 127.897 87.4445C131.547 88.219 134.616 87.4445 135.876 85.4439C136.716 84.1531 136.554 82.5397 135.488 81.4102C134.81 80.7003 134.228 80.4744 131.127 79.7C129.738 79.345 129.286 78.6351 130.255 78.2802C131.03 77.9897 132.031 78.0543 133.388 78.5383C134.551 78.9578 134.616 78.9578 135.036 78.1188C136.037 76.1504 136.005 75.8923 134.68 75.5373C132.581 75.021 130.933 74.8919 129.447 75.2146Z" fill="#F0EFF0"/>
<path d="M148.119 75.3114C146.084 75.86 144.759 76.8603 143.984 78.506C142.24 82.1202 144.146 86.4442 147.925 87.4768C149.67 87.9608 152.641 87.6381 154.289 86.7992L155.581 86.1538V83.5723V80.9907H153.643H151.705V82.5719C151.705 83.8627 151.575 84.2176 151.091 84.379C148.41 85.218 146.245 81.2489 148.313 79.216C149.282 78.2156 151.285 78.1188 152.383 79.0223C153.126 79.6032 153.158 79.6032 154.354 78.6029C155.032 78.0543 155.581 77.4412 155.581 77.2798C155.581 76.6667 153.449 75.505 151.737 75.1823C149.702 74.7951 149.993 74.7951 148.119 75.3114Z" fill="#F0EFF0"/>
<path d="M106.156 81.3134V87.4445H108.094H110.032V81.3134V75.1823H108.094H106.156V81.3134Z" fill="#F0EFF0"/>
<path d="M112.294 81.3134V87.4445H114.232H116.138L116.235 84.7985L116.332 82.1524L118.528 84.7985L120.757 87.4445H122.502H124.246V81.3134V75.1501L122.243 75.2469L120.208 75.3437L120.047 77.9252L119.885 80.4745L117.688 77.8284L115.459 75.1823H113.877H112.294V81.3134Z" fill="#F0EFF0"/>
<path d="M137.814 81.3134V87.4445H139.752H141.69V81.3134V75.1823H139.752H137.814V81.3134Z" fill="#F0EFF0"/>
<path d="M157.196 81.3134V87.4445H159.296H161.396V85.1857V82.9269H163.334H165.272V85.1857V87.4445H167.211H169.149V81.3134V75.1823H167.211H165.305L165.208 77.3444L165.111 79.5387L163.269 79.6355L161.428 79.7323L161.331 77.538L161.234 75.3437L159.231 75.2469L157.196 75.1501V81.3134Z" fill="#F0EFF0"/>
<path d="M170.441 76.7958V78.4092H172.218H173.994V82.9269V87.4445H175.933H177.871V82.9269V78.4092H179.648H181.424V76.7958V75.1823H175.933H170.441V76.7958Z" fill="#F0EFF0"/>
</g>
<defs>
<filter id="filter0_d_2128_54" x="33.6714" y="33.2328" width="172.657" height="62.5345" filterUnits="userSpaceOnUse" color-interpolation-filters="sRGB">
<feFlood flood-opacity="0" result="BackgroundImageFix"/>
<feColorMatrix in="SourceAlpha" type="matrix" values="0 0 0 0 0 0 0 0 0 0 0 0 0 0 0 0 0 0 127 0" result="hardAlpha"/>
<feOffset dy="4"/>
<feGaussianBlur stdDeviation="2"/>
<feComposite in2="hardAlpha" operator="out"/>
<feColorMatrix type="matrix" values="0 0 0 0 0 0 0 0 0 0 0 0 0 0 0 0 0 0 0.15 0"/>
<feBlend mode="normal" in2="BackgroundImageFix" result="effect1_dropShadow_2128_54"/>
<feBlend mode="normal" in="SourceGraphic" in2="effect1_dropShadow_2128_54" result="shape"/>
</filter>
</defs>
</svg>
