<svg width="173" height="63" viewBox="0 0 173 63" fill="none" xmlns="http://www.w3.org/2000/svg">
<g filter="url(#filter0_d_2575_484)">
<path d="M4 12.7785V25.5892L5.55059 23.2013C9.23325 17.6188 15.5648 10.5519 20.6689 6.4215C22.5748 4.84033 25.7406 2.51696 28.5511 0.58083C29.3264 0.0645275 28.7126 0.032259 16.6955 0.032259L4 -1.14441e-05V12.7785ZM15.5648 6.16335C14.0143 7.58318 11.5914 10.0034 10.1701 11.5523L7.55344 14.3597V8.93848V3.54957H12.9805H18.3753L15.5648 6.16335Z" fill="#F0EFF0"/>
<path d="M51.6485 0.35495C46.286 1.06487 39.1145 3.25916 34.0105 5.84067C27.905 8.87394 20.7981 14.6501 16.2109 20.2326C11.4299 26.1055 7.71496 33.4306 5.74442 40.9492C4.90451 44.2084 4 50.3718 4 52.9533V54.5345H5.29216C10.4608 54.5345 18.8599 52.7597 24.5131 50.4363C43.8309 42.5627 57.334 23.9758 58.4969 3.54958L58.6907 -7.62939e-06L56.3002 0.0322609C54.9758 0.0645332 52.9083 0.225876 51.6485 0.35495ZM54.8466 5.22756C54.4266 8.7126 53.3929 13.2625 52.2622 16.4894C51.1316 19.8131 48.1919 25.8474 46.9644 27.4286L46.3183 28.2353V26.3637C46.286 19.0709 39.5021 12.2944 32.2014 12.2622H30.3278L31.1354 11.6168C32.2014 10.7778 37.5316 8.03495 40.1805 6.97008C43.0233 5.8084 47.5458 4.61445 51.0347 4.06588C55.3957 3.38823 55.105 3.29142 54.8466 5.22756ZM35.561 16.5217C38.1777 17.4897 41.085 20.4262 42.0865 23.0723C43.0556 25.686 42.9587 29.7519 41.8603 32.0108C40.6651 34.3987 38.7591 36.3348 36.3686 37.4965C34.4304 38.4645 33.9458 38.5613 31.2969 38.5613C28.8095 38.5613 28.1311 38.4323 26.5482 37.6901C24.19 36.5929 21.961 34.3664 20.8627 32.0108C20.1197 30.4296 19.9905 29.7519 19.9905 27.2672C19.9905 24.8148 20.1197 24.0726 20.8304 22.5882C22.2518 19.555 24.5777 17.3929 27.5496 16.2958C29.4556 15.5859 33.3967 15.715 35.561 16.5217ZM17.0831 32.2689C17.3739 33.0434 17.923 34.2696 18.343 35.0118C19.3444 36.6897 22.5748 39.7553 24.2869 40.6266C26.0637 41.5301 28.971 42.2723 30.8124 42.2723H32.266L31.4584 42.9176C30.1017 43.9503 25.2884 46.3704 22.1549 47.5966C18.5368 48.9842 13.4328 50.2427 10.267 50.5331L7.87648 50.759V49.3714C7.87648 47.5966 8.97482 42.3045 10.0086 38.9486C11.01 35.8508 13.142 31.1395 14.8865 28.2998L16.114 26.2992L16.3401 28.558C16.4694 29.7842 16.7924 31.4622 17.0831 32.2689Z" fill="#F0EFF0"/>
<path d="M29.3586 18.3933C26.5482 19.1032 24.3515 20.9102 23.1886 23.395C22.2194 25.4602 22.1225 28.8807 23.027 30.8491C24.5776 34.2373 27.5496 36.1412 31.2646 36.1412C35.0441 36.1089 37.7254 34.4955 39.4698 31.1395C40.1159 29.8487 40.3097 29.0743 40.3097 27.2672C40.3097 24.4921 39.5021 22.556 37.5962 20.6844C36.0133 19.1677 35.6579 19.0709 35.6579 20.1035C35.6579 21.7815 33.332 23.0723 31.8137 22.2333C30.5216 21.4911 29.9401 20.2326 30.3924 19.0387C30.5862 18.5223 30.6508 18.0706 30.5539 18.1029C30.4247 18.1351 29.9078 18.2642 29.3586 18.3933Z" fill="#F0EFF0"/>
<path d="M99.3939 0.613107C98.6186 0.968064 97.8433 1.64571 97.5525 2.22655C96.1958 4.80806 97.6494 7.00235 101.138 7.74454C103.496 8.22857 104.207 8.80941 103.173 9.35798C102.463 9.74521 99.9107 9.39025 98.6509 8.7126C98.1663 8.45445 98.0048 8.6158 97.5525 9.84202C97.2295 10.6487 97.068 11.4232 97.1649 11.5845C97.7464 12.5203 103.4 12.9076 105.209 12.1331C107.179 11.2941 108.148 9.45479 107.631 7.51865C107.276 6.16336 106.339 5.55025 103.593 4.8726C102.172 4.51765 101.364 4.13042 101.3 3.80773C101.171 3.13008 102.398 2.87193 103.981 3.25916C106.081 3.77546 106.145 3.77546 106.759 2.35563C107.341 0.968064 107.341 0.968064 106.63 0.580838C106.242 0.387224 104.756 0.161342 103.335 0.0968037C101.268 -2.86102e-06 100.492 0.0968037 99.3939 0.613107Z" fill="#F0EFF0"/>
<path d="M72.4846 6.29243V12.2622H77.0072C81.8851 12.2622 82.9188 12.004 83.9202 10.5842C84.6955 9.48705 84.534 8.22856 83.5003 7.03461C82.5635 5.96974 82.5635 5.96974 83.1773 5.19528C83.8556 4.35629 83.9849 2.87192 83.4357 1.87159C82.7896 0.709907 81.2067 0.32268 76.6841 0.32268H72.4846V6.29243ZM79.5269 3.9368C79.43 4.58218 79.2039 4.67898 77.9117 4.77579C76.4257 4.8726 76.3611 4.84033 76.3611 4.06587C76.3611 3.29142 76.458 3.22688 78.0086 3.22688C79.5269 3.22688 79.6238 3.29142 79.5269 3.9368ZM80.1407 8.26083C80.4314 9.03529 79.7853 9.42251 78.0086 9.61613L76.3611 9.77747V8.74487C76.3611 7.74453 76.3611 7.74453 78.1378 7.74453C79.4623 7.74453 79.9792 7.8736 80.1407 8.26083Z" fill="#F0EFF0"/>
<path d="M85.7292 6.29243V12.2622H90.8979H96.0665V10.8101V9.35797H92.9977C89.9288 9.35797 89.9288 9.35797 89.9288 8.55125C89.9288 7.74453 89.9611 7.74453 92.5131 7.74453H95.0974V6.29243V4.84033H92.5131C89.9611 4.84033 89.9288 4.84033 89.9288 4.0336C89.9288 3.22688 89.9611 3.22688 92.8361 3.22688H95.7435V1.77478V0.32268H90.7364H85.7292V6.29243Z" fill="#F0EFF0"/>
<path d="M108.019 1.77478V3.22688H109.796H111.572V7.74453V12.2622H113.672H115.772V7.74453V3.22688H117.549H119.325V1.77478V0.32268H113.672H108.019V1.77478Z" fill="#F0EFF0"/>
<path d="M75.5535 21.5234C70.6755 24.0726 70.6755 30.7523 75.5535 32.9466C77.9763 34.076 81.562 33.5597 83.371 31.8817L84.114 31.1718L83.4033 30.3973C82.2081 29.1388 81.562 28.9129 80.8836 29.526C80.5929 29.8165 79.7853 30.1069 79.1715 30.236C76.9425 30.5909 75.2627 27.8481 76.4257 25.7183C77.2656 24.1049 79.2038 23.7176 80.6575 24.8793L81.5297 25.5247L82.8219 24.4921C84.3078 23.2981 84.3401 23.2013 83.5325 22.4914C81.885 21.0071 77.524 20.4585 75.5535 21.5234Z" fill="#F0EFF0"/>
<path d="M88.6689 21.2975C86.0846 22.3946 84.7601 24.4276 84.7601 27.2995C84.7601 29.881 85.7939 31.5913 88.0551 32.7207C91.0271 34.205 94.6775 33.6565 96.7772 31.4299C99.2646 28.7516 98.7155 24.1694 95.6789 22.0719C94.5483 21.2652 93.9991 21.1361 91.8993 21.0716C90.5426 21.0071 89.0889 21.1361 88.6689 21.2975ZM93.3207 25.0084C94.9036 26.5573 94.1606 29.6551 92.0931 30.1714C89.315 30.8813 87.5383 26.6541 89.8642 24.8471C90.9625 23.9758 92.3516 24.0403 93.3207 25.0084Z" fill="#F0EFF0"/>
<path d="M99.943 27.0736V33.237H101.72H103.496V30.8168C103.496 29.4938 103.593 28.3966 103.755 28.3966C103.884 28.3966 104.498 29.2679 105.112 30.3328C106.081 32.0108 106.371 32.2689 107.211 32.2689C108.051 32.2689 108.342 32.0108 109.473 30.0746L110.765 27.9126L110.862 30.5586L110.959 33.237H112.703H114.48V27.0736V20.9425L112.8 21.0393L111.12 21.1361L109.311 24.1694C108.31 25.8151 107.341 27.1381 107.179 27.0736C107.018 27.0091 106.081 25.6538 105.112 24.0726L103.335 21.1361L101.623 21.0393L99.943 20.9425V27.0736Z" fill="#F0EFF0"/>
<path d="M116.677 21.1684C116.515 21.2975 116.418 24.0726 116.418 27.3318V33.237H118.518H120.618V31.7849V30.3328H122.33C124.333 30.3328 126.497 29.4292 127.24 28.2676C128.694 26.0733 128.015 23.2336 125.722 21.9429C124.623 21.3297 123.783 21.1684 120.65 21.0393C118.582 20.9748 116.806 21.0071 116.677 21.1684ZM123.331 24.718C124.494 25.8474 123.719 27.1059 121.845 27.1059H120.618V25.6538C120.618 24.2017 120.618 24.2017 121.716 24.2017C122.33 24.2017 123.073 24.4276 123.331 24.718Z" fill="#F0EFF0"/>
<path d="M132.732 21.2975C132.635 21.4588 131.375 24.234 129.986 27.4286L127.466 33.237H129.534C131.569 33.237 131.633 33.2047 131.956 32.2689C132.312 31.3008 132.344 31.3008 134.702 31.3008C137.093 31.3008 137.125 31.3008 137.448 32.2689C137.803 33.2047 137.868 33.237 139.903 33.237C142.391 33.237 142.455 33.9792 139.192 26.5573L136.802 21.1361L134.896 21.0393C133.798 20.9748 132.861 21.1039 132.732 21.2975ZM135.316 26.6541C135.93 28.1708 135.962 28.074 134.702 28.074H133.604L134.088 26.7832C134.379 26.0733 134.67 25.4924 134.702 25.4924C134.767 25.4924 135.058 26.0087 135.316 26.6541Z" fill="#F0EFF0"/>
<path d="M142.907 27.1059V33.237H144.846H146.752L146.848 30.5909L146.945 27.9449L149.142 30.5909L151.371 33.237H153.115H154.86V27.1059V20.9748H152.922H151.016L150.919 23.7822L150.822 26.6218L148.431 23.7822L146.073 20.9748H144.49H142.907V27.1059Z" fill="#F0EFF0"/>
<path d="M155.506 21.1684C155.506 21.2652 156.54 23.04 157.767 25.1375C159.964 28.8161 160.029 28.9775 160.029 31.075V33.237H162.128H164.228V30.9459C164.228 28.6871 164.26 28.5902 166.392 25.0407C167.555 23.0723 168.589 21.362 168.654 21.2007C168.718 21.0716 167.911 20.9748 166.812 20.9748H164.874L163.97 22.4592C162.193 25.4924 162.29 25.4924 160.901 23.1045L159.673 20.9748H157.606C156.443 20.9748 155.506 21.0716 155.506 21.1684Z" fill="#F0EFF0"/>
<path d="M56.5587 32.0108C51.1639 39.9166 43.734 47.3062 35.7226 52.7274L33.0414 54.5345H45.8338H58.5939V41.9496C58.5939 35.0118 58.5616 29.3647 58.497 29.3647C58.4324 29.3647 57.5601 30.5587 56.5587 32.0108ZM55.0404 45.6605V50.9849H49.7426H44.4124L49.6457 45.6928C52.5207 42.7886 54.9112 40.4007 54.9758 40.3684C55.0081 40.3361 55.0404 42.724 55.0404 45.6605Z" fill="#F0EFF0"/>
<path d="M95.7757 41.9818C93.8698 42.3691 92.8684 43.079 92.2869 44.4666C91.6731 45.9832 92.0285 47.6289 93.1914 48.4679C93.6437 48.8229 95.0327 49.3392 96.2603 49.6618C97.714 50.0168 98.4893 50.3718 98.4893 50.6945C98.4893 51.3721 95.7757 51.4689 94.2574 50.8235C93.6114 50.5654 93.0299 50.3718 92.9976 50.404C92.9976 50.4686 92.6745 51.1139 92.3515 51.8884C91.6408 53.5341 91.77 53.6632 94.2251 54.2118C97.8755 54.9862 100.944 54.2118 102.204 52.2111C103.044 50.9203 102.883 49.3069 101.817 48.1775C101.138 47.4676 100.557 47.2417 97.4555 46.4672C96.0665 46.1123 95.6142 45.4023 96.5833 45.0474C97.3586 44.757 98.3601 44.8215 99.7168 45.3055C100.88 45.725 100.944 45.725 101.364 44.886C102.366 42.9176 102.333 42.6595 101.009 42.3045C98.9092 41.7882 97.2617 41.6592 95.7757 41.9818Z" fill="#F0EFF0"/>
<path d="M114.448 42.0786C112.412 42.6272 111.088 43.6276 110.313 45.2733C108.568 48.8874 110.474 53.2114 114.254 54.244C115.998 54.7281 118.97 54.4054 120.618 53.5664L121.91 52.921V50.3395V47.758H119.972H118.033V49.3392C118.033 50.6299 117.904 50.9849 117.42 51.1462C114.738 51.9852 112.574 48.0161 114.641 45.9832C115.61 44.9829 117.613 44.886 118.712 45.7896C119.455 46.3704 119.487 46.3704 120.682 45.3701C121.361 44.8215 121.91 44.2084 121.91 44.0471C121.91 43.4339 119.778 42.2723 118.066 41.9496C116.03 41.5623 116.321 41.5623 114.448 42.0786Z" fill="#F0EFF0"/>
<path d="M72.4846 48.0807V54.2118H74.4229H76.3611V48.0807V41.9496H74.4229H72.4846V48.0807Z" fill="#F0EFF0"/>
<path d="M78.6223 48.0807V54.2118H80.5606H82.4665L82.5634 51.5657L82.6603 48.9197L84.857 51.5657L87.086 54.2118H88.8304H90.5748V48.0807V41.9173L88.572 42.0141L86.5368 42.1109L86.3753 44.6924L86.2138 47.2417L84.0171 44.5956L81.7881 41.9496H80.2052H78.6223V48.0807Z" fill="#F0EFF0"/>
<path d="M104.143 48.0807V54.2118H106.081H108.019V48.0807V41.9496H106.081H104.143V48.0807Z" fill="#F0EFF0"/>
<path d="M123.525 48.0807V54.2118H125.625H127.724V51.9529V49.6941H129.663H131.601V51.9529V54.2118H133.539H135.477V48.0807V41.9496H133.539H131.633L131.536 44.1116L131.439 46.3059L129.598 46.4027L127.757 46.4995L127.66 44.3052L127.563 42.1109L125.56 42.0141L123.525 41.9173V48.0807Z" fill="#F0EFF0"/>
<path d="M136.77 43.563V45.1765H138.546H140.323V49.6941V54.2118H142.261H144.2V49.6941V45.1765H145.976H147.753V43.563V41.9496H142.261H136.77V43.563Z" fill="#F0EFF0"/>
</g>
<defs>
<filter id="filter0_d_2575_484" x="0" y="-1.52588e-05" width="172.657" height="62.5345" filterUnits="userSpaceOnUse" color-interpolation-filters="sRGB">
<feFlood flood-opacity="0" result="BackgroundImageFix"/>
<feColorMatrix in="SourceAlpha" type="matrix" values="0 0 0 0 0 0 0 0 0 0 0 0 0 0 0 0 0 0 127 0" result="hardAlpha"/>
<feOffset dy="4"/>
<feGaussianBlur stdDeviation="2"/>
<feComposite in2="hardAlpha" operator="out"/>
<feColorMatrix type="matrix" values="0 0 0 0 0 0 0 0 0 0 0 0 0 0 0 0 0 0 0.15 0"/>
<feBlend mode="normal" in2="BackgroundImageFix" result="effect1_dropShadow_2575_484"/>
<feBlend mode="normal" in="SourceGraphic" in2="effect1_dropShadow_2575_484" result="shape"/>
</filter>
</defs>
</svg>
