<svg width="144" height="48" viewBox="0 0 144 48" fill="none" xmlns="http://www.w3.org/2000/svg">
<path d="M0.5 11.8084V22.912L1.84396 20.8423C5.03587 16.0037 10.5237 9.87855 14.9476 6.29855C16.5996 4.92808 19.3435 2.91433 21.7794 1.2362C22.4514 0.788702 21.9194 0.760735 11.5037 0.760735L0.5 0.732765V11.8084ZM10.5237 6.0748C9.17976 7.30543 7.07982 9.40308 5.84785 10.7456L3.57991 13.1789V8.48011V3.80933H8.28378H12.9597L10.5237 6.0748Z" fill="#F0EFF0"/>
<path d="M41.7989 1.04043C37.151 1.65574 30.9352 3.55762 26.5113 5.79512C21.2194 8.42419 15.0596 13.4306 11.0837 18.2692C6.93982 23.3595 3.71991 29.7084 2.01196 36.2251C1.28398 39.05 0.5 44.392 0.5 46.6295V48H1.61997C6.09984 48 13.3796 46.4617 18.2795 44.448C35.023 37.6236 46.7267 21.5136 47.7347 3.80934L47.9027 0.732773L45.8307 0.760742C44.6828 0.788712 42.8908 0.928555 41.7989 1.04043ZM44.5708 5.26371C44.2068 8.28434 43.3108 12.2279 42.3308 15.0248C41.3509 17.9056 38.8029 23.1358 37.739 24.5062L37.179 25.2055V23.5833C37.151 17.2623 31.2711 11.3889 24.9433 11.3609H23.3194L24.0193 10.8015C24.9433 10.0743 29.5632 7.697 31.8591 6.77403C34.3231 5.76715 38.243 4.73231 41.2669 4.25684C45.0468 3.66949 44.7948 3.58559 44.5708 5.26371ZM27.8552 15.0528C30.1232 15.8918 32.6431 18.437 33.5111 20.7304C34.3511 22.9959 34.2671 26.52 33.3151 28.4778C32.2791 30.5475 30.6272 32.2256 28.5552 33.2325C26.8753 34.0716 26.4553 34.1555 24.1593 34.1555C22.0034 34.1555 21.4154 34.0436 20.0435 33.4003C17.9995 32.4494 16.0676 30.5195 15.1156 28.4778C14.4716 27.1073 14.3596 26.52 14.3596 24.3664C14.3596 22.2408 14.4716 21.5975 15.0876 20.3109C16.3196 17.6818 18.3355 15.8079 20.9114 14.857C22.5634 14.2417 25.9793 14.3536 27.8552 15.0528ZM11.8397 28.7015C12.0917 29.3728 12.5677 30.4356 12.9317 31.0789C13.7996 32.5333 16.5996 35.1903 18.0835 35.9455C19.6235 36.7286 22.1434 37.3719 23.7394 37.3719H24.9993L24.2993 37.9312C23.1234 38.8262 18.9515 40.9239 16.2356 41.9867C13.0997 43.1894 8.67577 44.2802 5.93185 44.5319L3.85991 44.7277V43.525C3.85991 41.9867 4.81188 37.3998 5.70786 34.4911C6.57583 31.8061 8.42378 27.7226 9.93574 25.2614L10.9997 23.5273L11.1957 25.4851C11.3077 26.548 11.5877 28.0023 11.8397 28.7015Z" fill="#F0EFF0"/>
<path d="M22.4793 16.675C20.0434 17.2903 18.1394 18.8565 17.1315 21.0101C16.2915 22.8001 16.2075 25.7648 16.9915 27.4709C18.3354 30.4076 20.9114 32.0578 24.1313 32.0578C27.4072 32.0298 29.7311 30.6314 31.2431 27.7226C31.8031 26.6039 31.971 25.9326 31.971 24.3664C31.971 21.9611 31.2711 20.2829 29.6191 18.6608C28.2471 17.3462 27.9392 17.2623 27.9392 18.1573C27.9392 19.6117 25.9232 20.7304 24.6073 20.0033C23.4873 19.36 22.9833 18.2692 23.3753 17.2343C23.5433 16.7868 23.5993 16.3953 23.5153 16.4232C23.4033 16.4512 22.9553 16.5631 22.4793 16.675Z" fill="#F0EFF0"/>
<path d="M83.1817 1.26418C82.5097 1.57183 81.8378 2.15918 81.5858 2.66262C80.4098 4.90012 81.6698 6.802 84.6937 7.44528C86.7376 7.86481 87.3536 8.36825 86.4576 8.84372C85.8416 9.17934 83.6297 8.87168 82.5377 8.28434C82.1177 8.06059 81.9778 8.20043 81.5858 9.26325C81.3058 9.96247 81.1658 10.6337 81.2498 10.7736C81.7538 11.5847 86.6536 11.9203 88.2216 11.249C89.9295 10.5218 90.7695 8.92762 90.3215 7.2495C90.0135 6.07481 89.2016 5.5434 86.8216 4.95606C85.5897 4.6484 84.8897 4.31277 84.8337 4.03309C84.7217 3.44574 85.7856 3.22199 87.1576 3.55762C88.9776 4.00512 89.0336 4.00512 89.5655 2.77449C90.0695 1.57183 90.0695 1.57183 89.4535 1.23621C89.1176 1.0684 87.8296 0.872615 86.5976 0.816677C84.8057 0.732771 84.1337 0.816677 83.1817 1.26418Z" fill="#F0EFF0"/>
<path d="M59.8584 6.18668V11.3609H63.7783C68.0062 11.3609 68.9021 11.1372 69.7701 9.90652C70.4421 8.95559 70.3021 7.8648 69.4061 6.82996C68.5942 5.90699 68.5942 5.90699 69.1261 5.23574C69.7141 4.50855 69.8261 3.22199 69.3501 2.35495C68.7902 1.34808 67.4182 1.01245 63.4983 1.01245H59.8584V6.18668ZM65.9622 4.14496C65.8782 4.70433 65.6822 4.78824 64.5623 4.87215C63.2743 4.95605 63.2183 4.92808 63.2183 4.25683C63.2183 3.58558 63.3023 3.52964 64.6463 3.52964C65.9622 3.52964 66.0462 3.58558 65.9622 4.14496ZM66.4942 7.89277C66.7462 8.56402 66.1862 8.89965 64.6463 9.06746L63.2183 9.20731V8.3123C63.2183 7.44527 63.2183 7.44527 64.7583 7.44527C65.9062 7.44527 66.3542 7.55715 66.4942 7.89277Z" fill="#F0EFF0"/>
<path d="M71.338 6.18668V11.3609H75.8179H80.2978V10.1023V8.84371H77.6378C74.9779 8.84371 74.9779 8.84371 74.9779 8.14449C74.9779 7.44527 75.0059 7.44527 77.2178 7.44527H79.4578V6.18668V4.92808H77.2178C75.0059 4.92808 74.9779 4.92808 74.9779 4.22886C74.9779 3.52964 75.0059 3.52964 77.4978 3.52964H80.0178V2.27105V1.01245H75.6779H71.338V6.18668Z" fill="#F0EFF0"/>
<path d="M90.6575 2.27105V3.52964H92.1974H93.7374V7.44527V11.3609H95.5573H97.3773V7.44527V3.52964H98.9172H100.457V2.27105V1.01245H95.5573H90.6575V2.27105Z" fill="#F0EFF0"/>
<path d="M62.5183 19.3879C58.2904 21.5975 58.2904 27.387 62.5183 29.2889C64.6183 30.2678 67.7262 29.8203 69.2941 28.3659L69.9381 27.7506L69.3221 27.0794C68.2862 25.9886 67.7262 25.7928 67.1382 26.3242C66.8862 26.5759 66.1862 26.8276 65.6542 26.9395C63.7223 27.2472 62.2663 24.8698 63.2743 23.0239C64.0023 21.6254 65.6822 21.2898 66.9422 22.2967L67.6982 22.8561L68.8181 21.9611C70.1061 20.9262 70.1341 20.8423 69.4341 20.227C68.0062 18.9404 64.2263 18.465 62.5183 19.3879Z" fill="#F0EFF0"/>
<path d="M73.886 19.1922C71.646 20.1431 70.498 21.9051 70.498 24.3943C70.498 26.6319 71.394 28.1142 73.354 29.0931C75.9299 30.3797 79.0938 29.9042 80.9138 27.9744C83.0697 25.6529 82.5937 21.6814 79.9618 19.8634C78.9818 19.1642 78.5058 19.0523 76.6859 18.9964C75.5099 18.9404 74.2499 19.0523 73.886 19.1922ZM77.9178 22.4086C79.2898 23.7511 78.6458 26.4361 76.8539 26.8836C74.4459 27.4989 72.906 23.835 74.9219 22.2687C75.8739 21.5136 77.0779 21.5695 77.9178 22.4086Z" fill="#F0EFF0"/>
<path d="M83.6577 24.1986V29.5406H85.1977H86.7376V27.4429C86.7376 26.2962 86.8216 25.3453 86.9616 25.3453C87.0736 25.3453 87.6056 26.1004 88.1376 27.0234C88.9776 28.4778 89.2296 28.7015 89.9575 28.7015C90.6855 28.7015 90.9375 28.4778 91.9175 26.7997L93.0375 24.9258L93.1215 27.2192L93.2054 29.5406H94.7174H96.2574V24.1986V18.8845L94.8014 18.9684L93.3454 19.0523L91.7775 21.6814C90.9095 23.1078 90.0695 24.2545 89.9295 24.1986C89.7895 24.1426 88.9776 22.9679 88.1376 21.5975L86.5976 19.0523L85.1137 18.9684L83.6577 18.8845V24.1986Z" fill="#F0EFF0"/>
<path d="M98.1612 19.0803C98.0213 19.1922 97.9373 21.5975 97.9373 24.4223V29.5406H99.7572H101.577V28.282V27.0234H103.061C104.797 27.0234 106.673 26.2403 107.317 25.2334C108.577 23.3315 107.989 20.8703 106.001 19.7515C105.049 19.2201 104.321 19.0803 101.605 18.9684C99.8132 18.9125 98.2732 18.9404 98.1612 19.0803ZM103.929 22.1568C104.937 23.1358 104.265 24.2265 102.641 24.2265H101.577V22.9679C101.577 21.7093 101.577 21.7093 102.529 21.7093C103.061 21.7093 103.705 21.9051 103.929 22.1568Z" fill="#F0EFF0"/>
<path d="M112.077 19.1922C111.993 19.332 110.901 21.7373 109.697 24.5062L107.513 29.5406H109.305C111.069 29.5406 111.125 29.5126 111.405 28.7015C111.713 27.8625 111.741 27.8625 113.785 27.8625C115.857 27.8625 115.885 27.8625 116.165 28.7015C116.473 29.5126 116.529 29.5406 118.293 29.5406C120.449 29.5406 120.505 30.1839 117.677 23.7511L115.605 19.0523L113.953 18.9684C113.001 18.9125 112.189 19.0243 112.077 19.1922ZM114.317 23.835C114.849 25.1495 114.877 25.0656 113.785 25.0656H112.833L113.253 23.9468C113.505 23.3315 113.757 22.8281 113.785 22.8281C113.841 22.8281 114.093 23.2756 114.317 23.835Z" fill="#F0EFF0"/>
<path d="M120.897 24.2265V29.5406H122.577H124.229L124.313 27.2472L124.397 24.9537L126.3 27.2472L128.232 29.5406H129.744H131.256V24.2265V18.9125H129.576H127.924L127.84 21.3458L127.756 23.807L125.684 21.3458L123.641 18.9125H122.269H120.897V24.2265Z" fill="#F0EFF0"/>
<path d="M131.816 19.0803C131.816 19.1642 132.712 20.7025 133.776 22.5204C135.68 25.7089 135.736 25.8487 135.736 27.6667V29.5406H137.556H139.376V27.5548C139.376 25.597 139.404 25.5131 141.252 22.4365C142.26 20.7304 143.156 19.2481 143.212 19.1083C143.268 18.9964 142.568 18.9125 141.616 18.9125H139.936L139.152 20.199C137.612 22.8281 137.696 22.8281 136.492 20.7584L135.428 18.9125H133.636C132.628 18.9125 131.816 18.9964 131.816 19.0803Z" fill="#F0EFF0"/>
<path d="M46.0548 28.4778C41.379 35.3301 34.9391 41.735 27.9953 46.4337L25.6714 48H36.7591H47.8188V37.0922C47.8188 31.0789 47.7908 26.1844 47.7348 26.1844C47.6788 26.1844 46.9228 27.2192 46.0548 28.4778ZM44.7389 40.3086V44.9234H40.147H35.5271L40.063 40.3366C42.5549 37.8194 44.6269 35.7497 44.6829 35.7217C44.7109 35.6937 44.7389 37.7634 44.7389 40.3086Z" fill="#F0EFF0"/>
<path d="M80.0457 37.1201C78.3938 37.4558 77.5258 38.0711 77.0218 39.2737C76.4898 40.5883 76.7978 42.0147 77.8058 42.7419C78.1978 43.0495 79.4017 43.497 80.4657 43.7767C81.7257 44.0844 82.3976 44.392 82.3976 44.6717C82.3976 45.2591 80.0457 45.343 78.7298 44.7836C78.1698 44.5598 77.6658 44.392 77.6378 44.42C77.6378 44.4759 77.3578 45.0353 77.0778 45.7066C76.4618 47.133 76.5738 47.2448 78.7018 47.7203C81.8657 48.3916 84.5256 47.7203 85.6176 45.9862C86.3455 44.8675 86.2055 43.4691 85.2816 42.4901C84.6936 41.8748 84.1896 41.6791 81.5017 41.0078C80.2977 40.7001 79.9057 40.0848 80.7457 39.7772C81.4177 39.5255 82.2857 39.5814 83.4616 40.0009C84.4696 40.3645 84.5256 40.3645 84.8896 39.6373C85.7576 37.9312 85.7296 37.7075 84.5816 37.3998C82.7616 36.9523 81.3337 36.8405 80.0457 37.1201Z" fill="#F0EFF0"/>
<path d="M96.2293 37.204C94.4654 37.6795 93.3174 38.5465 92.6454 39.973C91.1335 43.1055 92.7854 46.8533 96.0613 47.7483C97.5733 48.1678 100.149 47.8881 101.577 47.1609L102.697 46.6015V44.364V42.1265H101.017H99.3372V43.497C99.3372 44.6158 99.2252 44.9234 98.8053 45.0633C96.4813 45.7905 94.6054 42.3503 96.3973 40.5883C97.2373 39.7212 98.9733 39.6373 99.9252 40.4205C100.569 40.9239 100.597 40.9239 101.633 40.0569C102.221 39.5814 102.697 39.05 102.697 38.9101C102.697 38.3787 100.849 37.3719 99.3652 37.0922C97.6013 36.7565 97.8533 36.7565 96.2293 37.204Z" fill="#F0EFF0"/>
<path d="M59.8584 42.4062V47.7203H61.5384H63.2183V42.4062V37.0922H61.5384H59.8584V42.4062Z" fill="#F0EFF0"/>
<path d="M65.1782 42.4062V47.7203H66.8582H68.5101L68.5941 45.4269L68.6781 43.1334L70.5821 45.4269L72.514 47.7203H74.026H75.5379V42.4062V37.0642L73.802 37.1481L72.038 37.232L71.898 39.4695L71.758 41.6791L69.8541 39.3856L67.9221 37.0922H66.5502H65.1782V42.4062Z" fill="#F0EFF0"/>
<path d="M87.2976 42.4062V47.7203H88.9776H90.6575V42.4062V37.0922H88.9776H87.2976V42.4062Z" fill="#F0EFF0"/>
<path d="M104.097 42.4062V47.7203H105.917H107.737V45.7625V43.8047H109.417H111.097V45.7625V47.7203H112.777H114.457V42.4062V37.0922H112.777H111.125L111.041 38.9661L110.957 40.868L109.361 40.9519L107.765 41.0358L107.681 39.1339L107.597 37.232L105.861 37.1481L104.097 37.0642V42.4062Z" fill="#F0EFF0"/>
<path d="M115.577 38.4906V39.8891H117.117H118.657V43.8047V47.7203H120.337H122.017V43.8047V39.8891H123.557H125.097V38.4906V37.0922H120.337H115.577V38.4906Z" fill="#F0EFF0"/>
</svg>
