<svg width="147" height="75" viewBox="0 0 147 75" fill="none" xmlns="http://www.w3.org/2000/svg">
<g filter="url(#filter0_d_2442_263)">
<path fill-rule="evenodd" clip-rule="evenodd" d="M85.945 41.2835C85.945 42.4878 85.705 43.5508 85.231 44.4726C84.752 45.397 84.111 46.157 83.303 46.7527C82.346 47.4717 81.319 47.9775 80.231 48.2805C79.14 48.5784 77.728 48.7273 76 48.7273H68.719V24.4882H75.452C77.262 24.4882 78.616 24.5447 79.52 24.6576C80.423 24.7706 81.293 25.0377 82.122 25.4639C83.031 25.9287 83.698 26.5398 84.114 27.2921C84.536 28.0444 84.746 28.9329 84.746 29.9471C84.746 31.0897 84.43 32.1091 83.798 33.0052C83.168 33.9065 82.294 34.6126 81.179 35.1185V35.2494C82.692 35.6423 83.864 36.3561 84.694 37.3934C85.526 38.4308 85.94 39.7223 85.94 41.2784L85.945 41.2835ZM81.232 30.4093C81.232 29.8187 81.129 29.3155 80.921 28.8815C80.721 28.4578 80.389 28.1163 79.936 27.8673C79.388 27.5746 78.779 27.3948 78.108 27.3281C77.438 27.2664 76.511 27.233 75.328 27.233H72.085V34.3302H75.926C76.983 34.3302 77.765 34.2788 78.263 34.1735C78.764 34.0683 79.28 33.8577 79.815 33.5316C80.328 33.2209 80.692 32.805 80.908 32.2966C81.124 31.7856 81.232 31.1539 81.232 30.4093ZM82.433 41.4145C82.433 40.5004 82.294 39.748 82.02 39.1523C81.746 38.5617 81.195 38.0585 80.368 37.6476C79.831 37.3729 79.248 37.2009 78.619 37.1238C77.986 37.0494 77.091 37.0109 75.929 37.0109H72.085V45.985H74.838C76.316 45.985 77.483 45.9182 78.337 45.7873C79.19 45.6563 79.944 45.3816 80.589 44.9553C81.227 44.5317 81.69 44.0489 81.988 43.5123C82.286 42.9731 82.436 42.2746 82.436 41.417L82.433 41.4145Z" fill="#F0EFF0"/>
</g>
<g filter="url(#filter1_d_2442_263)">
<path fill-rule="evenodd" clip-rule="evenodd" d="M89.312 48.7273V24.4882H105.219V27.3537H92.681V33.9964H104.365V36.8671H92.681V45.8592H105.219V48.7273H89.312Z" fill="#F0EFF0"/>
</g>
<g filter="url(#filter2_d_2442_263)">
<path fill-rule="evenodd" clip-rule="evenodd" d="M115.988 49.1587C114.144 49.1587 112.582 48.9738 111.291 48.6169C110 48.2548 108.788 47.8029 107.653 47.274V43.2401H107.892C109.004 44.2364 110.263 45.0067 111.676 45.5536C113.082 46.1005 114.444 46.3727 115.751 46.3727C117.611 46.3727 119.02 46.0055 119.977 45.2609C120.93 44.5162 121.407 43.5354 121.407 42.3234C121.407 41.3554 121.154 40.5723 120.656 39.9637C120.158 39.3552 119.363 38.9058 118.269 38.6105C117.487 38.3948 116.771 38.2177 116.122 38.0764C115.474 37.9352 114.66 37.7452 113.683 37.509C112.808 37.2907 112.021 37.0134 111.328 36.6771C110.638 36.3407 110.024 35.9016 109.486 35.3598C108.962 34.8257 108.556 34.2044 108.267 33.4777C107.974 32.7613 107.832 31.9294 107.832 30.9845C107.832 29.0202 108.633 27.3743 110.24 26.0442C111.839 24.7193 113.886 24.0542 116.373 24.0542C117.795 24.0542 119.136 24.1903 120.406 24.4625C121.671 24.7347 122.845 25.1198 123.923 25.618V29.4824H123.667C122.864 28.7737 121.829 28.16 120.567 27.631C119.305 27.1047 117.98 26.8428 116.597 26.8428C115.029 26.8428 113.765 27.192 112.795 27.8878C111.828 28.5888 111.349 29.508 111.349 30.6455C111.349 31.6726 111.633 32.4917 112.2 33.1002C112.769 33.7088 113.593 34.1556 114.671 34.4354C115.39 34.6178 116.262 34.8283 117.297 35.062C118.333 35.2931 119.189 35.5113 119.874 35.7065C121.623 36.2174 122.903 36.9877 123.707 38.0174C124.516 39.0496 124.919 40.3181 124.919 41.8253C124.919 42.7651 124.716 43.7023 124.315 44.6215C123.91 45.5459 123.343 46.329 122.616 46.9684C121.8 47.672 120.875 48.2163 119.848 48.5963C118.82 48.9763 117.532 49.1638 115.988 49.1638V49.1587Z" fill="#F0EFF0"/>
</g>
<g filter="url(#filter3_d_2442_263)">
<path fill-rule="evenodd" clip-rule="evenodd" d="M134.308 48.7273V27.3537H125.775V24.4882H146.213V27.3537H137.68V48.7273H134.308Z" fill="#F0EFF0"/>
</g>
<g filter="url(#filter4_d_2442_263)">
<path d="M132.619 58.4948H128.899V51.978H129.753V57.7245H132.619V58.4948ZM137.941 51.978L135.733 58.4948H134.814L132.606 51.978H133.52L135.296 57.3779L137.069 51.978H137.943H137.941ZM140.796 58.4948H138.304V57.8298H139.124V52.643H138.304V51.978H140.796V52.643H139.977V57.8298H140.796V58.4948ZM146.497 51.978L144.29 58.4948H143.368L141.163 51.978H142.077L143.852 57.3779L145.625 51.978H146.495H146.497Z" fill="#F0EFF0"/>
</g>
<g filter="url(#filter5_d_2442_263)">
<path fill-rule="evenodd" clip-rule="evenodd" d="M56.044 48.7581L50.451 45.4843H35.8435L30.2453 48.7581C35.5985 58.2021 51.605 73.6622 68.942 75C62.902 71.5644 53.286 59.2163 56.047 48.7581H56.044Z" fill="#F0EFF0"/>
</g>
<g filter="url(#filter6_d_2442_263)">
<path fill-rule="evenodd" clip-rule="evenodd" d="M59.993 0C60.085 7.0329 54.364 21.656 44.0629 24.4625V31.023L51.371 43.8666L56.961 47.1481C62.341 37.717 67.525 15.9172 59.993 0.00259972V0Z" fill="#F0EFF0"/>
</g>
<g filter="url(#filter7_d_2442_263)">
<path fill-rule="evenodd" clip-rule="evenodd" d="M42.2293 24.4599C31.5019 24.4471 10.308 30.7867 0.5 45.3636C6.4538 41.7714 21.7888 39.4861 29.3312 47.1456L34.9214 43.864L42.2267 31.0204L42.232 24.4599H42.2293Z" fill="#F0EFF0"/>
</g>
<g filter="url(#filter8_d_2442_263)">
<path fill-rule="evenodd" clip-rule="evenodd" d="M39.7187 40.1178C39.7187 38.2023 41.252 36.6488 43.1435 36.6488C45.035 36.6488 46.5682 38.2023 46.5682 40.1178C46.5682 42.0333 45.035 43.597 43.1435 43.597C41.252 43.597 39.7187 42.0435 39.7187 40.1178Z" fill="#F0EFF0"/>
</g>
<defs>
<filter id="filter0_d_2442_263" x="64.719" y="24.4882" width="25.226" height="32.2391" filterUnits="userSpaceOnUse" color-interpolation-filters="sRGB">
<feFlood flood-opacity="0" result="BackgroundImageFix"/>
<feColorMatrix in="SourceAlpha" type="matrix" values="0 0 0 0 0 0 0 0 0 0 0 0 0 0 0 0 0 0 127 0" result="hardAlpha"/>
<feOffset dy="4"/>
<feGaussianBlur stdDeviation="2"/>
<feComposite in2="hardAlpha" operator="out"/>
<feColorMatrix type="matrix" values="0 0 0 0 0 0 0 0 0 0 0 0 0 0 0 0 0 0 0.15 0"/>
<feBlend mode="normal" in2="BackgroundImageFix" result="effect1_dropShadow_2442_263"/>
<feBlend mode="normal" in="SourceGraphic" in2="effect1_dropShadow_2442_263" result="shape"/>
</filter>
<filter id="filter1_d_2442_263" x="85.312" y="24.4882" width="23.907" height="32.2391" filterUnits="userSpaceOnUse" color-interpolation-filters="sRGB">
<feFlood flood-opacity="0" result="BackgroundImageFix"/>
<feColorMatrix in="SourceAlpha" type="matrix" values="0 0 0 0 0 0 0 0 0 0 0 0 0 0 0 0 0 0 127 0" result="hardAlpha"/>
<feOffset dy="4"/>
<feGaussianBlur stdDeviation="2"/>
<feComposite in2="hardAlpha" operator="out"/>
<feColorMatrix type="matrix" values="0 0 0 0 0 0 0 0 0 0 0 0 0 0 0 0 0 0 0.15 0"/>
<feBlend mode="normal" in2="BackgroundImageFix" result="effect1_dropShadow_2442_263"/>
<feBlend mode="normal" in="SourceGraphic" in2="effect1_dropShadow_2442_263" result="shape"/>
</filter>
<filter id="filter2_d_2442_263" x="103.653" y="24.0542" width="25.266" height="33.1096" filterUnits="userSpaceOnUse" color-interpolation-filters="sRGB">
<feFlood flood-opacity="0" result="BackgroundImageFix"/>
<feColorMatrix in="SourceAlpha" type="matrix" values="0 0 0 0 0 0 0 0 0 0 0 0 0 0 0 0 0 0 127 0" result="hardAlpha"/>
<feOffset dy="4"/>
<feGaussianBlur stdDeviation="2"/>
<feComposite in2="hardAlpha" operator="out"/>
<feColorMatrix type="matrix" values="0 0 0 0 0 0 0 0 0 0 0 0 0 0 0 0 0 0 0.15 0"/>
<feBlend mode="normal" in2="BackgroundImageFix" result="effect1_dropShadow_2442_263"/>
<feBlend mode="normal" in="SourceGraphic" in2="effect1_dropShadow_2442_263" result="shape"/>
</filter>
<filter id="filter3_d_2442_263" x="121.775" y="24.4882" width="28.438" height="32.2391" filterUnits="userSpaceOnUse" color-interpolation-filters="sRGB">
<feFlood flood-opacity="0" result="BackgroundImageFix"/>
<feColorMatrix in="SourceAlpha" type="matrix" values="0 0 0 0 0 0 0 0 0 0 0 0 0 0 0 0 0 0 127 0" result="hardAlpha"/>
<feOffset dy="4"/>
<feGaussianBlur stdDeviation="2"/>
<feComposite in2="hardAlpha" operator="out"/>
<feColorMatrix type="matrix" values="0 0 0 0 0 0 0 0 0 0 0 0 0 0 0 0 0 0 0.15 0"/>
<feBlend mode="normal" in2="BackgroundImageFix" result="effect1_dropShadow_2442_263"/>
<feBlend mode="normal" in="SourceGraphic" in2="effect1_dropShadow_2442_263" result="shape"/>
</filter>
<filter id="filter4_d_2442_263" x="124.899" y="51.978" width="25.598" height="14.5168" filterUnits="userSpaceOnUse" color-interpolation-filters="sRGB">
<feFlood flood-opacity="0" result="BackgroundImageFix"/>
<feColorMatrix in="SourceAlpha" type="matrix" values="0 0 0 0 0 0 0 0 0 0 0 0 0 0 0 0 0 0 127 0" result="hardAlpha"/>
<feOffset dy="4"/>
<feGaussianBlur stdDeviation="2"/>
<feComposite in2="hardAlpha" operator="out"/>
<feColorMatrix type="matrix" values="0 0 0 0 0 0 0 0 0 0 0 0 0 0 0 0 0 0 0.15 0"/>
<feBlend mode="normal" in2="BackgroundImageFix" result="effect1_dropShadow_2442_263"/>
<feBlend mode="normal" in="SourceGraphic" in2="effect1_dropShadow_2442_263" result="shape"/>
</filter>
<filter id="filter5_d_2442_263" x="26.2453" y="45.4843" width="46.6967" height="37.5157" filterUnits="userSpaceOnUse" color-interpolation-filters="sRGB">
<feFlood flood-opacity="0" result="BackgroundImageFix"/>
<feColorMatrix in="SourceAlpha" type="matrix" values="0 0 0 0 0 0 0 0 0 0 0 0 0 0 0 0 0 0 127 0" result="hardAlpha"/>
<feOffset dy="4"/>
<feGaussianBlur stdDeviation="2"/>
<feComposite in2="hardAlpha" operator="out"/>
<feColorMatrix type="matrix" values="0 0 0 0 0 0 0 0 0 0 0 0 0 0 0 0 0 0 0.15 0"/>
<feBlend mode="normal" in2="BackgroundImageFix" result="effect1_dropShadow_2442_263"/>
<feBlend mode="normal" in="SourceGraphic" in2="effect1_dropShadow_2442_263" result="shape"/>
</filter>
<filter id="filter6_d_2442_263" x="40.0629" y="0" width="27.7048" height="55.1481" filterUnits="userSpaceOnUse" color-interpolation-filters="sRGB">
<feFlood flood-opacity="0" result="BackgroundImageFix"/>
<feColorMatrix in="SourceAlpha" type="matrix" values="0 0 0 0 0 0 0 0 0 0 0 0 0 0 0 0 0 0 127 0" result="hardAlpha"/>
<feOffset dy="4"/>
<feGaussianBlur stdDeviation="2"/>
<feComposite in2="hardAlpha" operator="out"/>
<feColorMatrix type="matrix" values="0 0 0 0 0 0 0 0 0 0 0 0 0 0 0 0 0 0 0.15 0"/>
<feBlend mode="normal" in2="BackgroundImageFix" result="effect1_dropShadow_2442_263"/>
<feBlend mode="normal" in="SourceGraphic" in2="effect1_dropShadow_2442_263" result="shape"/>
</filter>
<filter id="filter7_d_2442_263" x="-3.5" y="24.4599" width="49.732" height="30.6857" filterUnits="userSpaceOnUse" color-interpolation-filters="sRGB">
<feFlood flood-opacity="0" result="BackgroundImageFix"/>
<feColorMatrix in="SourceAlpha" type="matrix" values="0 0 0 0 0 0 0 0 0 0 0 0 0 0 0 0 0 0 127 0" result="hardAlpha"/>
<feOffset dy="4"/>
<feGaussianBlur stdDeviation="2"/>
<feComposite in2="hardAlpha" operator="out"/>
<feColorMatrix type="matrix" values="0 0 0 0 0 0 0 0 0 0 0 0 0 0 0 0 0 0 0.15 0"/>
<feBlend mode="normal" in2="BackgroundImageFix" result="effect1_dropShadow_2442_263"/>
<feBlend mode="normal" in="SourceGraphic" in2="effect1_dropShadow_2442_263" result="shape"/>
</filter>
<filter id="filter8_d_2442_263" x="35.7187" y="36.6488" width="14.8495" height="14.9482" filterUnits="userSpaceOnUse" color-interpolation-filters="sRGB">
<feFlood flood-opacity="0" result="BackgroundImageFix"/>
<feColorMatrix in="SourceAlpha" type="matrix" values="0 0 0 0 0 0 0 0 0 0 0 0 0 0 0 0 0 0 127 0" result="hardAlpha"/>
<feOffset dy="4"/>
<feGaussianBlur stdDeviation="2"/>
<feComposite in2="hardAlpha" operator="out"/>
<feColorMatrix type="matrix" values="0 0 0 0 0 0 0 0 0 0 0 0 0 0 0 0 0 0 0.15 0"/>
<feBlend mode="normal" in2="BackgroundImageFix" result="effect1_dropShadow_2442_263"/>
<feBlend mode="normal" in="SourceGraphic" in2="effect1_dropShadow_2442_263" result="shape"/>
</filter>
</defs>
</svg>
