<svg width="131" height="67" viewBox="0 0 131 67" fill="none" xmlns="http://www.w3.org/2000/svg">
<g clip-path="url(#clip0_2377_234)">
<path fill-rule="evenodd" clip-rule="evenodd" d="M76.2549 36.8798C76.2549 37.9556 76.0415 38.9052 75.6193 39.7287C75.1923 40.5545 74.6223 41.2335 73.9022 41.7656C73.0507 42.4079 72.1359 42.8598 71.1671 43.1305C70.1959 43.3965 68.9386 43.5296 67.3998 43.5296H60.9163V21.876H66.9119C68.5234 21.876 69.7291 21.9264 70.5337 22.0274C71.3383 22.1283 72.1124 22.3669 72.8513 22.7476C73.6606 23.1628 74.254 23.7087 74.6247 24.3808C75 25.0529 75.1876 25.8466 75.1876 26.7526C75.1876 27.7734 74.9062 28.684 74.3432 29.4846C73.7826 30.2897 73.0038 30.9205 72.0115 31.3724V31.4893C73.358 31.8403 74.4018 32.478 75.1407 33.4047C75.882 34.3314 76.2503 35.4852 76.2503 36.8752L76.2549 36.8798ZM72.0584 27.1655C72.0584 26.6379 71.967 26.1883 71.7816 25.8007C71.6034 25.4222 71.3078 25.1171 70.9043 24.8946C70.4164 24.6331 69.8746 24.4726 69.2764 24.4129C68.6806 24.3579 67.8549 24.3281 66.8017 24.3281H63.9141V30.6682H67.3342C68.2748 30.6682 68.9715 30.6223 69.4148 30.5282C69.8605 30.4342 70.3203 30.2461 70.7964 29.9548C71.2539 29.6772 71.5776 29.3056 71.7699 28.8515C71.9623 28.395 72.0584 27.8307 72.0584 27.1655ZM73.1281 36.9968C73.1281 36.1802 73.0038 35.5081 72.7598 34.9759C72.5159 34.4484 72.0256 33.9988 71.2891 33.6318C70.8105 33.3863 70.2921 33.2326 69.7315 33.1638C69.1685 33.0973 68.371 33.0629 67.3365 33.0629H63.9141V41.0798H66.3654C67.6813 41.0798 68.7205 41.0201 69.4805 40.9032C70.2405 40.7862 70.9114 40.5407 71.4861 40.16C72.0538 39.7815 72.4666 39.3502 72.7317 38.8708C72.9967 38.3891 73.1304 37.7652 73.1304 36.9991L73.1281 36.9968Z" fill="#F0EFF0"/>
<path fill-rule="evenodd" clip-rule="evenodd" d="M79.2527 43.5296V21.876H93.4162V24.4359H82.2529V30.37H92.6562V32.9345H82.2529V40.9674H93.4162V43.5296H79.2527Z" fill="#F0EFF0"/>
<path fill-rule="evenodd" clip-rule="evenodd" d="M103.005 43.9149C101.363 43.9149 99.9725 43.7497 98.8231 43.4309C97.6737 43.1075 96.5946 42.7038 95.5836 42.2312V38.6277H95.7971C96.787 39.5177 97.9082 40.2058 99.1655 40.6944C100.418 41.183 101.631 41.4261 102.794 41.4261C104.45 41.4261 105.705 41.0981 106.557 40.4329C107.406 39.7677 107.831 38.8914 107.831 37.8088C107.831 36.944 107.605 36.2444 107.162 35.7008C106.719 35.1571 106.01 34.7557 105.037 34.4919C104.34 34.2992 103.702 34.141 103.125 34.0148C102.548 33.8886 101.823 33.7189 100.953 33.5079C100.174 33.3129 99.4728 33.0652 98.8559 32.7647C98.2413 32.4642 97.6948 32.0719 97.2162 31.5879C96.7494 31.1108 96.3882 30.5557 96.1302 29.9066C95.8698 29.2666 95.7431 28.5234 95.7431 27.6793C95.7431 25.9245 96.4562 24.4542 97.8871 23.266C99.311 22.0824 101.134 21.4883 103.348 21.4883C104.615 21.4883 105.809 21.6099 106.939 21.853C108.065 22.0961 109.111 22.4402 110.071 22.8852V26.3374H109.843C109.128 25.7043 108.206 25.1561 107.082 24.6836C105.959 24.2133 104.779 23.9794 103.547 23.9794C102.152 23.9794 101.026 24.2913 100.162 24.9129C99.3016 25.5392 98.8747 26.3603 98.8747 27.3765C98.8747 28.294 99.128 29.0258 99.6323 29.5694C100.139 30.113 100.873 30.5121 101.833 30.7622C102.473 30.925 103.249 31.1131 104.171 31.3219C105.093 31.5283 105.856 31.7233 106.465 31.8976C108.023 32.3541 109.163 33.0422 109.878 33.962C110.599 34.8842 110.957 36.0173 110.957 37.3638C110.957 38.2033 110.777 39.0405 110.42 39.8617C110.059 40.6875 109.555 41.3871 108.907 41.9583C108.18 42.5868 107.357 43.0731 106.442 43.4126C105.527 43.752 104.38 43.9195 103.005 43.9195V43.9149Z" fill="#F0EFF0"/>
<path fill-rule="evenodd" clip-rule="evenodd" d="M119.318 43.5296V24.4359H111.72V21.876H129.918V24.4359H122.32V43.5296H119.318Z" fill="#F0EFF0"/>
<path d="M117.814 52.2553H114.502V46.4336H115.262V51.5671H117.814V52.2553ZM122.552 46.4336L120.587 52.2553H119.768L117.802 46.4336H118.616L120.197 51.2575L121.776 46.4336H122.555H122.552ZM125.095 52.2553H122.876V51.6612H123.606V47.0277H122.876V46.4336H125.095V47.0277H124.366V51.6612H125.095V52.2553ZM130.171 46.4336L128.206 52.2553H127.385L125.421 46.4336H126.235L127.816 51.2575L129.395 46.4336H130.169H130.171Z" fill="#F0EFF0"/>
<path fill-rule="evenodd" clip-rule="evenodd" d="M49.631 43.5574L44.651 40.6328H31.644L26.6593 43.5574C31.4258 51.9941 45.6784 65.8051 61.1156 67.0002C55.7369 63.9311 47.175 52.9001 49.6333 43.5574H49.631Z" fill="#F0EFF0"/>
<path fill-rule="evenodd" clip-rule="evenodd" d="M53.1472 0C53.2293 6.28275 48.1344 19.346 38.9626 21.8532V27.7139L45.4696 39.1875L50.4473 42.119C55.2372 33.6938 59.8536 14.2193 53.1472 0.00229381V0Z" fill="#F0EFF0"/>
<path fill-rule="evenodd" clip-rule="evenodd" d="M37.33 21.8506C27.7782 21.8391 8.90683 27.5026 0.173706 40.5245C5.47504 37.3155 19.1295 35.274 25.8453 42.1164L30.8229 39.185L37.3276 27.7113L37.3323 21.8506H37.33Z" fill="#F0EFF0"/>
<path fill-rule="evenodd" clip-rule="evenodd" d="M35.0945 35.8382C35.0945 34.127 36.4597 32.7393 38.1439 32.7393C39.8282 32.7393 41.1934 34.127 41.1934 35.8382C41.1934 37.5494 39.8282 38.9463 38.1439 38.9463C36.4597 38.9463 35.0945 37.5586 35.0945 35.8382Z" fill="#F0EFF0"/>
</g>
<defs>
<clipPath id="clip0_2377_234">
<rect width="130" height="67" fill="white" transform="translate(0.173706)"/>
</clipPath>
</defs>
</svg>
