<svg width="248" height="121" viewBox="0 0 248 121" fill="none" xmlns="http://www.w3.org/2000/svg">
<g clip-path="url(#clip0_2135_12)">
<g filter="url(#filter0_d_2135_12)">
<path fill-rule="evenodd" clip-rule="evenodd" d="M138.445 64.2835C138.445 65.4878 138.205 66.5508 137.731 67.4726C137.252 68.397 136.611 69.157 135.803 69.7527C134.846 70.4717 133.819 70.9775 132.731 71.2805C131.64 71.5784 130.228 71.7273 128.5 71.7273H121.219V47.4882H127.952C129.762 47.4882 131.116 47.5447 132.02 47.6576C132.923 47.7706 133.793 48.0377 134.622 48.4639C135.531 48.9287 136.198 49.5398 136.614 50.2921C137.036 51.0444 137.246 51.9329 137.246 52.9471C137.246 54.0897 136.93 55.1091 136.298 56.0052C135.668 56.9065 134.794 57.6126 133.679 58.1185V58.2494C135.192 58.6423 136.364 59.3561 137.194 60.3934C138.026 61.4308 138.44 62.7223 138.44 64.2784L138.445 64.2835ZM133.732 53.4093C133.732 52.8187 133.629 52.3155 133.421 51.8815C133.221 51.4578 132.889 51.1163 132.436 50.8673C131.888 50.5746 131.279 50.3948 130.608 50.3281C129.938 50.2664 129.011 50.233 127.828 50.233H124.585V57.3302H128.426C129.483 57.3302 130.265 57.2788 130.763 57.1735C131.264 57.0683 131.78 56.8577 132.315 56.5316C132.828 56.2209 133.192 55.805 133.408 55.2966C133.624 54.7856 133.732 54.1539 133.732 53.4093ZM134.933 64.4145C134.933 63.5004 134.794 62.748 134.52 62.1523C134.246 61.5617 133.695 61.0585 132.868 60.6476C132.331 60.3729 131.748 60.2009 131.119 60.1238C130.486 60.0494 129.591 60.0109 128.429 60.0109H124.585V68.985H127.338C128.816 68.985 129.983 68.9182 130.837 68.7873C131.69 68.6563 132.444 68.3816 133.089 67.9553C133.727 67.5317 134.19 67.0489 134.488 66.5123C134.786 65.9731 134.936 65.2746 134.936 64.417L134.933 64.4145Z" fill="#F0EFF0"/>
</g>
<g filter="url(#filter1_d_2135_12)">
<path fill-rule="evenodd" clip-rule="evenodd" d="M141.812 71.7273V47.4882H157.719V50.3537H145.181V56.9964H156.865V59.8671H145.181V68.8592H157.719V71.7273H141.812Z" fill="#F0EFF0"/>
</g>
<g filter="url(#filter2_d_2135_12)">
<path fill-rule="evenodd" clip-rule="evenodd" d="M168.488 72.1587C166.644 72.1587 165.082 71.9738 163.791 71.6169C162.5 71.2548 161.288 70.8029 160.153 70.274V66.2401H160.392C161.504 67.2364 162.763 68.0067 164.176 68.5536C165.582 69.1005 166.944 69.3727 168.251 69.3727C170.111 69.3727 171.52 69.0055 172.477 68.2609C173.43 67.5162 173.907 66.5354 173.907 65.3234C173.907 64.3554 173.654 63.5723 173.156 62.9637C172.658 62.3552 171.863 61.9058 170.769 61.6105C169.987 61.3948 169.271 61.2177 168.622 61.0764C167.974 60.9352 167.16 60.7452 166.183 60.509C165.308 60.2907 164.521 60.0134 163.828 59.6771C163.138 59.3407 162.524 58.9016 161.986 58.3598C161.462 57.8257 161.056 57.2044 160.767 56.4777C160.474 55.7613 160.332 54.9294 160.332 53.9845C160.332 52.0202 161.133 50.3743 162.74 49.0442C164.339 47.7193 166.386 47.0542 168.873 47.0542C170.295 47.0542 171.636 47.1903 172.906 47.4625C174.171 47.7347 175.345 48.1198 176.423 48.618V52.4824H176.167C175.364 51.7737 174.329 51.16 173.067 50.631C171.805 50.1047 170.48 49.8428 169.097 49.8428C167.529 49.8428 166.265 50.192 165.295 50.8878C164.328 51.5888 163.849 52.508 163.849 53.6455C163.849 54.6726 164.133 55.4917 164.7 56.1002C165.269 56.7088 166.093 57.1556 167.171 57.4354C167.89 57.6178 168.762 57.8283 169.797 58.062C170.833 58.2931 171.689 58.5113 172.374 58.7065C174.123 59.2174 175.403 59.9877 176.207 61.0174C177.016 62.0496 177.419 63.3181 177.419 64.8253C177.419 65.7651 177.216 66.7023 176.815 67.6215C176.41 68.5459 175.843 69.329 175.116 69.9684C174.3 70.672 173.375 71.2163 172.348 71.5963C171.32 71.9763 170.032 72.1638 168.488 72.1638V72.1587Z" fill="#F0EFF0"/>
</g>
<g filter="url(#filter3_d_2135_12)">
<path fill-rule="evenodd" clip-rule="evenodd" d="M186.808 71.7273V50.3537H178.275V47.4882H198.713V50.3537H190.18V71.7273H186.808Z" fill="#F0EFF0"/>
</g>
<g filter="url(#filter4_d_2135_12)">
<path d="M185.119 81.4948H181.399V74.978H182.253V80.7245H185.119V81.4948ZM190.441 74.978L188.233 81.4948H187.314L185.106 74.978H186.02L187.796 80.3779L189.569 74.978H190.443H190.441ZM193.296 81.4948H190.804V80.8298H191.624V75.643H190.804V74.978H193.296V75.643H192.477V80.8298H193.296V81.4948ZM198.997 74.978L196.79 81.4948H195.868L193.663 74.978H194.577L196.352 80.3779L198.125 74.978H198.995H198.997Z" fill="#F0EFF0"/>
</g>
<g filter="url(#filter5_d_2135_12)">
<path fill-rule="evenodd" clip-rule="evenodd" d="M108.544 71.7581L102.951 68.4843H88.3435L82.7453 71.7581C88.0985 81.2021 104.105 96.6622 121.442 98C115.402 94.5644 105.786 82.2163 108.547 71.7581H108.544Z" fill="#F0EFF0"/>
</g>
<g filter="url(#filter6_d_2135_12)">
<path fill-rule="evenodd" clip-rule="evenodd" d="M112.493 23C112.585 30.0329 106.864 44.656 96.5629 47.4625V54.023L103.871 66.8666L109.461 70.1481C114.841 60.717 120.025 38.9172 112.493 23.0026V23Z" fill="#F0EFF0"/>
</g>
<g filter="url(#filter7_d_2135_12)">
<path fill-rule="evenodd" clip-rule="evenodd" d="M94.7293 47.4599C84.0019 47.4471 62.808 53.7867 53 68.3636C58.9538 64.7714 74.2888 62.4861 81.8312 70.1456L87.4214 66.864L94.7267 54.0204L94.732 47.4599H94.7293Z" fill="#F0EFF0"/>
</g>
<g filter="url(#filter8_d_2135_12)">
<path fill-rule="evenodd" clip-rule="evenodd" d="M92.2187 63.1178C92.2187 61.2023 93.752 59.6488 95.6435 59.6488C97.535 59.6488 99.0682 61.2023 99.0682 63.1178C99.0682 65.0333 97.535 66.597 95.6435 66.597C93.752 66.597 92.2187 65.0435 92.2187 63.1178Z" fill="#F0EFF0"/>
</g>
</g>
<defs>
<filter id="filter0_d_2135_12" x="117.219" y="47.4882" width="25.2265" height="32.2391" filterUnits="userSpaceOnUse" color-interpolation-filters="sRGB">
<feFlood flood-opacity="0" result="BackgroundImageFix"/>
<feColorMatrix in="SourceAlpha" type="matrix" values="0 0 0 0 0 0 0 0 0 0 0 0 0 0 0 0 0 0 127 0" result="hardAlpha"/>
<feOffset dy="4"/>
<feGaussianBlur stdDeviation="2"/>
<feComposite in2="hardAlpha" operator="out"/>
<feColorMatrix type="matrix" values="0 0 0 0 0 0 0 0 0 0 0 0 0 0 0 0 0 0 0.15 0"/>
<feBlend mode="normal" in2="BackgroundImageFix" result="effect1_dropShadow_2135_12"/>
<feBlend mode="normal" in="SourceGraphic" in2="effect1_dropShadow_2135_12" result="shape"/>
</filter>
<filter id="filter1_d_2135_12" x="137.812" y="47.4882" width="23.9067" height="32.2391" filterUnits="userSpaceOnUse" color-interpolation-filters="sRGB">
<feFlood flood-opacity="0" result="BackgroundImageFix"/>
<feColorMatrix in="SourceAlpha" type="matrix" values="0 0 0 0 0 0 0 0 0 0 0 0 0 0 0 0 0 0 127 0" result="hardAlpha"/>
<feOffset dy="4"/>
<feGaussianBlur stdDeviation="2"/>
<feComposite in2="hardAlpha" operator="out"/>
<feColorMatrix type="matrix" values="0 0 0 0 0 0 0 0 0 0 0 0 0 0 0 0 0 0 0.15 0"/>
<feBlend mode="normal" in2="BackgroundImageFix" result="effect1_dropShadow_2135_12"/>
<feBlend mode="normal" in="SourceGraphic" in2="effect1_dropShadow_2135_12" result="shape"/>
</filter>
<filter id="filter2_d_2135_12" x="156.153" y="47.0542" width="25.2661" height="33.1096" filterUnits="userSpaceOnUse" color-interpolation-filters="sRGB">
<feFlood flood-opacity="0" result="BackgroundImageFix"/>
<feColorMatrix in="SourceAlpha" type="matrix" values="0 0 0 0 0 0 0 0 0 0 0 0 0 0 0 0 0 0 127 0" result="hardAlpha"/>
<feOffset dy="4"/>
<feGaussianBlur stdDeviation="2"/>
<feComposite in2="hardAlpha" operator="out"/>
<feColorMatrix type="matrix" values="0 0 0 0 0 0 0 0 0 0 0 0 0 0 0 0 0 0 0.15 0"/>
<feBlend mode="normal" in2="BackgroundImageFix" result="effect1_dropShadow_2135_12"/>
<feBlend mode="normal" in="SourceGraphic" in2="effect1_dropShadow_2135_12" result="shape"/>
</filter>
<filter id="filter3_d_2135_12" x="174.275" y="47.4882" width="28.4379" height="32.2391" filterUnits="userSpaceOnUse" color-interpolation-filters="sRGB">
<feFlood flood-opacity="0" result="BackgroundImageFix"/>
<feColorMatrix in="SourceAlpha" type="matrix" values="0 0 0 0 0 0 0 0 0 0 0 0 0 0 0 0 0 0 127 0" result="hardAlpha"/>
<feOffset dy="4"/>
<feGaussianBlur stdDeviation="2"/>
<feComposite in2="hardAlpha" operator="out"/>
<feColorMatrix type="matrix" values="0 0 0 0 0 0 0 0 0 0 0 0 0 0 0 0 0 0 0.15 0"/>
<feBlend mode="normal" in2="BackgroundImageFix" result="effect1_dropShadow_2135_12"/>
<feBlend mode="normal" in="SourceGraphic" in2="effect1_dropShadow_2135_12" result="shape"/>
</filter>
<filter id="filter4_d_2135_12" x="177.399" y="74.978" width="25.598" height="14.5168" filterUnits="userSpaceOnUse" color-interpolation-filters="sRGB">
<feFlood flood-opacity="0" result="BackgroundImageFix"/>
<feColorMatrix in="SourceAlpha" type="matrix" values="0 0 0 0 0 0 0 0 0 0 0 0 0 0 0 0 0 0 127 0" result="hardAlpha"/>
<feOffset dy="4"/>
<feGaussianBlur stdDeviation="2"/>
<feComposite in2="hardAlpha" operator="out"/>
<feColorMatrix type="matrix" values="0 0 0 0 0 0 0 0 0 0 0 0 0 0 0 0 0 0 0.15 0"/>
<feBlend mode="normal" in2="BackgroundImageFix" result="effect1_dropShadow_2135_12"/>
<feBlend mode="normal" in="SourceGraphic" in2="effect1_dropShadow_2135_12" result="shape"/>
</filter>
<filter id="filter5_d_2135_12" x="78.7453" y="68.4843" width="46.6971" height="37.5157" filterUnits="userSpaceOnUse" color-interpolation-filters="sRGB">
<feFlood flood-opacity="0" result="BackgroundImageFix"/>
<feColorMatrix in="SourceAlpha" type="matrix" values="0 0 0 0 0 0 0 0 0 0 0 0 0 0 0 0 0 0 127 0" result="hardAlpha"/>
<feOffset dy="4"/>
<feGaussianBlur stdDeviation="2"/>
<feComposite in2="hardAlpha" operator="out"/>
<feColorMatrix type="matrix" values="0 0 0 0 0 0 0 0 0 0 0 0 0 0 0 0 0 0 0.15 0"/>
<feBlend mode="normal" in2="BackgroundImageFix" result="effect1_dropShadow_2135_12"/>
<feBlend mode="normal" in="SourceGraphic" in2="effect1_dropShadow_2135_12" result="shape"/>
</filter>
<filter id="filter6_d_2135_12" x="92.5629" y="23" width="27.7048" height="55.1481" filterUnits="userSpaceOnUse" color-interpolation-filters="sRGB">
<feFlood flood-opacity="0" result="BackgroundImageFix"/>
<feColorMatrix in="SourceAlpha" type="matrix" values="0 0 0 0 0 0 0 0 0 0 0 0 0 0 0 0 0 0 127 0" result="hardAlpha"/>
<feOffset dy="4"/>
<feGaussianBlur stdDeviation="2"/>
<feComposite in2="hardAlpha" operator="out"/>
<feColorMatrix type="matrix" values="0 0 0 0 0 0 0 0 0 0 0 0 0 0 0 0 0 0 0.15 0"/>
<feBlend mode="normal" in2="BackgroundImageFix" result="effect1_dropShadow_2135_12"/>
<feBlend mode="normal" in="SourceGraphic" in2="effect1_dropShadow_2135_12" result="shape"/>
</filter>
<filter id="filter7_d_2135_12" x="49" y="47.4599" width="49.732" height="30.6857" filterUnits="userSpaceOnUse" color-interpolation-filters="sRGB">
<feFlood flood-opacity="0" result="BackgroundImageFix"/>
<feColorMatrix in="SourceAlpha" type="matrix" values="0 0 0 0 0 0 0 0 0 0 0 0 0 0 0 0 0 0 127 0" result="hardAlpha"/>
<feOffset dy="4"/>
<feGaussianBlur stdDeviation="2"/>
<feComposite in2="hardAlpha" operator="out"/>
<feColorMatrix type="matrix" values="0 0 0 0 0 0 0 0 0 0 0 0 0 0 0 0 0 0 0.15 0"/>
<feBlend mode="normal" in2="BackgroundImageFix" result="effect1_dropShadow_2135_12"/>
<feBlend mode="normal" in="SourceGraphic" in2="effect1_dropShadow_2135_12" result="shape"/>
</filter>
<filter id="filter8_d_2135_12" x="88.2187" y="59.6488" width="14.8495" height="14.9482" filterUnits="userSpaceOnUse" color-interpolation-filters="sRGB">
<feFlood flood-opacity="0" result="BackgroundImageFix"/>
<feColorMatrix in="SourceAlpha" type="matrix" values="0 0 0 0 0 0 0 0 0 0 0 0 0 0 0 0 0 0 127 0" result="hardAlpha"/>
<feOffset dy="4"/>
<feGaussianBlur stdDeviation="2"/>
<feComposite in2="hardAlpha" operator="out"/>
<feColorMatrix type="matrix" values="0 0 0 0 0 0 0 0 0 0 0 0 0 0 0 0 0 0 0.15 0"/>
<feBlend mode="normal" in2="BackgroundImageFix" result="effect1_dropShadow_2135_12"/>
<feBlend mode="normal" in="SourceGraphic" in2="effect1_dropShadow_2135_12" result="shape"/>
</filter>
<clipPath id="clip0_2135_12">
<rect width="146" height="75" fill="white" transform="translate(53 23)"/>
</clipPath>
</defs>
</svg>
