<svg width="799" height="488" viewBox="0 0 799 488" fill="none" xmlns="http://www.w3.org/2000/svg">
<path d="M773.656 5.37506C747.922 -9.33328 704.469 15.9011 649.323 48.1563C580.135 88.4271 494.073 138.563 399.484 138.563C304.901 138.563 218.833 88.4271 149.651 47.9896C94.5 15.9011 51.0521 -9.49995 25.3177 5.20839C8.27083 15.0678 0.25 41.4688 0.25 88.2605C0.25 194.88 41.8594 295.151 117.229 370.521C192.599 445.891 292.865 487.5 399.484 487.5C506.104 487.5 606.375 445.891 681.745 370.521C757.115 295.151 798.724 194.88 798.724 88.2605C798.724 41.6355 790.87 15.2344 773.656 5.37506ZM399.484 484.323C181.234 484.323 3.58854 306.682 3.58854 88.4271C3.58854 43.474 11.276 17.2396 26.9844 8.2136C31.6667 5.54172 37.0156 4.36985 43.0312 4.36985C68.099 4.36985 104.359 25.5938 147.979 50.9949C217.5 91.4376 304.062 141.906 399.484 141.906C494.906 141.906 581.474 91.4376 650.995 50.9949C705.141 19.4115 747.922 -5.48953 771.984 8.2136C787.693 17.2396 795.38 43.474 795.38 88.4271C795.38 306.682 617.74 484.323 399.484 484.323Z" fill="#E6E7E8"/>
<path d="M749.594 25.9271C725.526 12.0573 685.083 35.7865 633.615 65.7032C569.109 103.302 489.057 149.927 400.823 149.927C312.589 149.927 232.536 103.135 168.031 65.7032C116.729 35.7865 76.1198 12.0573 52.0521 25.9271C36.1771 35.1198 28.6562 59.6876 28.6562 103.469C28.6562 202.901 67.4271 296.323 137.615 366.51C207.807 436.698 301.391 475.469 400.656 475.469C499.922 475.469 593.505 436.698 663.693 366.51C733.885 296.318 772.656 202.734 772.656 103.469C772.99 59.8542 765.469 35.1198 749.594 25.9271ZM400.823 472.125C197.443 472.125 32.1667 306.682 32.1667 103.469C32.1667 61.6928 39.1875 37.2917 53.8906 28.9375C58.2396 26.4271 63.25 25.2605 68.7656 25.2605C91.9948 25.2605 125.75 44.9792 166.526 68.7084C231.37 106.479 311.917 153.438 400.99 153.438C490.062 153.438 570.609 106.479 635.453 68.7084C685.922 39.2969 725.693 16.0678 748.089 28.9375C762.625 37.2917 769.812 61.6928 769.812 103.469C769.646 306.849 604.203 472.125 400.823 472.125Z" fill="#E6E7E8"/>
<path d="M725.359 46.6511C703.135 33.7813 665.365 55.8438 617.74 83.5834C558.078 118.344 483.714 161.625 402.161 161.625C320.609 161.625 246.24 118.344 186.583 83.5834C138.953 55.8438 101.354 33.9479 78.9583 46.6511C64.0885 55.1719 57.2344 78.0677 57.2344 118.51C57.2344 308.688 211.984 463.266 401.995 463.266C592 463.266 747.083 308.688 747.083 118.51C747.083 78.0677 740.234 55.1719 725.359 46.6511ZM402.161 460.094C213.99 460.094 60.7448 306.849 60.7448 118.51C60.7448 79.7396 67.2604 57.1771 80.7969 49.4896C84.8073 47.1511 89.3229 46.1511 94.5 46.1511C116.057 46.1511 147.307 64.3646 184.911 86.2552C244.906 121.182 319.604 164.802 402.161 164.802C484.714 164.802 559.417 121.182 619.411 86.2552C666.036 59.0156 702.969 37.625 723.521 49.3229C737.057 57.0104 743.578 79.5729 743.578 118.344C743.745 306.849 590.5 460.094 402.161 460.094Z" fill="#E6E7E8"/>
<path d="M701.13 67.375C680.573 55.5052 645.812 75.7292 602.031 101.297C547.047 133.385 478.698 173.156 403.661 173.156C328.63 173.156 260.115 133.385 205.297 101.297C161.349 75.7292 126.755 55.5052 106.198 67.375C92.4947 75.2292 86.1458 96.2812 86.1458 133.719C86.1458 308.854 228.693 451.401 403.833 451.401C578.969 451.401 721.516 308.854 721.516 133.719C721.182 96.2812 714.833 75.2292 701.13 67.375ZM403.661 447.896C230.365 447.896 89.3228 306.849 89.3228 133.552C89.3228 97.9531 95.3385 77.2344 107.703 70.0469C111.38 67.875 115.557 67.0365 120.234 67.0365C139.958 67.0365 168.87 83.75 203.458 103.969C258.776 136.224 327.625 176.333 403.495 176.333C479.365 176.333 548.385 136.224 603.531 103.969C646.484 78.9062 680.406 59.1823 699.292 70.0469C711.656 77.2344 717.672 97.9531 717.672 133.552C717.839 307.016 576.963 447.896 403.661 447.896Z" fill="#E6E7E8"/>
<path d="M676.896 87.9271C658.01 77.0677 626.26 95.6146 586.151 119.01C536.021 148.255 473.516 184.688 404.833 184.688C336.151 184.688 273.818 148.255 223.682 119.01C183.573 95.6146 151.823 77.0677 132.938 87.9271C120.406 95.1146 114.557 114.5 114.557 148.589C114.557 308.688 244.906 439.036 405 439.036C565.099 439.036 695.448 308.688 695.448 148.589C695.448 114.5 689.599 95.2813 676.896 87.9271ZM405 435.859C246.745 435.859 117.896 307.016 117.896 148.755C117.896 116.339 123.412 97.4532 134.609 90.9375C137.953 89.099 141.797 88.0938 145.974 88.0938C164.021 88.0938 190.26 103.469 222.01 121.854C272.479 151.266 335.479 188.031 405 188.031C474.521 188.031 537.354 151.432 587.99 121.854C627.266 98.9584 658.182 80.9115 675.391 90.7709C686.589 97.2865 692.104 116.172 692.104 148.589C692.104 307.016 563.26 435.859 405 435.859Z" fill="#E6E7E8"/>
<path d="M652.833 108.651C635.62 98.7917 606.875 115.5 570.443 136.724C524.99 163.297 468.505 196.219 406.339 196.219C344.172 196.219 287.687 163.297 242.229 136.724C205.802 115.5 177.057 98.7917 159.844 108.651C148.479 115.167 143.13 132.714 143.13 163.797C143.13 309.021 261.281 427.005 406.339 427.005C551.396 427.005 669.542 308.854 669.542 163.797C669.542 132.714 664.198 115.167 652.833 108.651ZM406.339 423.661C263.12 423.661 146.474 307.016 146.474 163.797C146.474 134.385 151.49 117.339 161.516 111.49C164.521 109.818 167.865 108.984 171.708 108.984C187.917 108.984 211.818 122.854 240.391 139.568C286.182 166.307 343.167 199.563 406.172 199.563C469.172 199.563 526.161 166.307 571.948 139.568C607.375 118.844 635.453 102.635 650.995 111.49C661.188 117.339 666.036 134.385 666.036 163.797C666.203 307.182 549.557 423.661 406.339 423.661Z" fill="#E6E7E8"/>
<path d="M628.599 129.375C613.057 120.516 587.323 135.557 554.568 154.609C513.792 178.339 463.156 207.917 407.677 207.917C352.193 207.917 301.391 178.339 260.781 154.609C228.193 135.557 202.292 120.516 186.75 129.375C176.385 135.224 171.708 151.099 171.708 179.005C171.708 309.188 277.661 414.974 407.677 414.974C537.687 414.974 643.641 309.021 643.641 179.005C643.641 150.932 638.963 135.224 628.599 129.375ZM407.677 411.63C279.328 411.63 175.052 307.182 175.052 179.005C175.052 152.771 179.396 137.563 188.422 132.38C191.094 130.875 194.104 130.208 197.609 130.208C212.151 130.208 233.375 142.573 259.109 157.615C300.219 181.51 351.187 211.26 407.677 211.26C464.161 211.26 515.297 181.51 556.24 157.615C587.99 139.068 613.057 124.526 626.927 132.38C635.953 137.563 640.297 152.771 640.297 179.005C640.297 307.182 536.021 411.63 407.677 411.63Z" fill="#E6E7E8"/>
<path d="M604.37 149.927C590.5 142.073 567.771 155.276 538.859 172.156C502.932 193.042 458.146 219.115 409.01 219.115C359.88 219.115 315.26 193.042 279.161 171.984C250.25 155.109 227.359 141.74 213.656 149.76C204.463 155.109 200.286 168.979 200.286 193.714C200.286 308.854 294.036 402.438 409.01 402.438C523.984 402.438 617.74 308.688 617.74 193.714C617.906 169.146 613.562 155.276 604.37 149.927ZM409.01 399.432C295.708 399.432 203.625 307.182 203.625 194.047C203.625 170.984 207.469 157.448 215.323 152.938C217.667 151.599 220.338 150.932 223.349 150.932C236.047 150.932 254.932 161.958 277.661 175.161C313.922 196.385 359.213 222.625 409.177 222.625C459.146 222.625 504.266 196.219 540.698 175.161C568.771 158.786 590.833 145.917 602.865 152.938C610.719 157.448 614.562 170.984 614.562 194.047C614.562 307.182 522.318 399.432 409.01 399.432Z" fill="#E6E7E8"/>
<path d="M580.135 170.651C568.104 163.63 548.219 175.328 522.984 190.036C491.734 208.25 452.963 230.812 410.349 230.812C367.734 230.812 328.963 208.25 297.713 190.036C272.479 175.328 252.594 163.797 240.557 170.651C232.536 175.328 228.693 187.526 228.693 209.089C228.693 309.188 310.078 390.74 410.349 390.74C510.62 390.74 592 309.354 592 209.089C592 187.526 588.156 175.328 580.135 170.651ZM410.349 387.229C312.083 387.229 232.036 307.182 232.036 208.917C232.036 188.865 235.38 177.333 242.062 173.49C244.068 172.323 246.24 171.818 248.917 171.818C259.943 171.818 276.323 181.344 295.875 192.875C327.458 211.26 366.729 234.151 410.182 234.151C453.63 234.151 492.901 211.26 524.49 192.875C548.719 178.672 567.937 167.641 578.297 173.49C585.151 177.333 588.495 189.031 588.495 208.917C588.661 307.349 508.615 387.229 410.349 387.229Z" fill="#E6E7E8"/>
<path d="M556.073 191.37C545.714 185.354 528.667 195.214 507.276 207.75C480.87 223.125 447.948 242.344 411.854 242.344C375.755 242.344 342.833 223.125 316.432 207.75C295.042 195.214 277.995 185.354 267.63 191.37C260.781 195.385 257.438 205.745 257.438 224.125C257.438 309.188 326.625 378.542 411.854 378.542C497.083 378.542 566.266 309.354 566.266 224.125C566.099 205.745 562.922 195.214 556.073 191.37ZM411.688 375.198C328.464 375.198 260.615 307.516 260.615 224.125C260.615 207.25 263.453 197.557 269.135 194.214C270.807 193.208 272.646 192.875 274.818 192.875C284.01 192.875 297.88 200.896 314.594 210.589C341.328 226.297 374.755 245.682 411.688 245.682C448.62 245.682 482.042 226.297 508.781 210.589C529.333 198.557 545.547 189.198 554.234 194.214C559.917 197.557 562.755 207.25 562.755 224.125C562.755 307.349 495.078 375.198 411.688 375.198Z" fill="#E6E7E8"/>
<path d="M531.839 211.927C523.151 206.912 509.115 215.104 491.401 225.464C469.672 238.167 442.604 253.875 413.021 253.875C383.443 253.875 356.37 238.167 334.646 225.464C316.932 215.104 302.896 206.912 294.203 211.927C288.354 215.271 285.682 223.958 285.682 239.167C285.682 309.354 342.667 366.344 412.854 366.344C483.042 366.344 540.031 309.354 540.031 239.167C540.365 223.958 537.521 215.271 531.839 211.927ZM413.188 363C344.839 363 289.359 307.516 289.359 239.167C289.359 225.464 291.531 217.443 296.208 214.766C297.547 214.099 299.052 213.599 300.719 213.599C308.24 213.599 319.604 220.281 333.307 228.135C355.37 241.005 382.776 257.047 413.354 257.047C443.771 257.047 471.344 241.005 493.406 228.135C510.115 218.276 523.484 210.589 530.505 214.599C535.016 217.276 537.354 225.13 537.354 239C537.021 307.516 481.37 363 413.188 363Z" fill="#E6E7E8"/>
<path d="M507.609 232.651C500.589 228.641 490.062 234.823 475.693 243.177C458.646 253.036 437.589 265.406 414.526 265.406C391.464 265.406 370.406 253.036 353.365 243.177C338.823 234.656 328.297 228.641 321.443 232.651C316.766 235.323 314.594 242.177 314.594 254.208C314.594 309.354 359.38 354.141 414.526 354.141C469.672 354.141 514.464 309.354 514.464 254.208C514.464 242.177 512.286 235.323 507.609 232.651ZM414.526 350.969C361.219 350.969 317.932 307.682 317.932 254.375C317.932 243.677 319.604 237.661 323.115 235.656C324.115 235.156 325.12 234.823 326.458 234.823C332.307 234.823 341.495 240.172 351.859 246.188C369.24 256.214 390.797 268.911 414.693 268.911C438.589 268.911 460.151 256.38 477.531 246.188C490.062 238.833 500.927 232.651 506.104 235.656C509.615 237.661 511.286 243.844 511.286 254.375C511.12 307.516 467.839 350.969 414.526 350.969Z" fill="#E6E7E8"/>
</svg>
